<?xml version="1.0" encoding="UTF-8" standalone="no"?>
<!-- Created with Inkscape (http://www.inkscape.org/) -->

<svg
   xmlns:dc="http://purl.org/dc/elements/1.1/"
   xmlns:cc="http://creativecommons.org/ns#"
   xmlns:rdf="http://www.w3.org/1999/02/22-rdf-syntax-ns#"
   xmlns:svg="http://www.w3.org/2000/svg"
   xmlns="http://www.w3.org/2000/svg"
   xmlns:sodipodi="http://sodipodi.sourceforge.net/DTD/sodipodi-0.dtd"
   xmlns:inkscape="http://www.inkscape.org/namespaces/inkscape"
   width="1141.5479"
   height="1216.5278"
   viewBox="0 0 302.03453 321.873"
   version="1.1"
   id="svg8"
   inkscape:version="0.92.1 15371"
   sodipodi:docname="Medicine icons.svg">
  <title
     id="title6461">Medical Icons</title>
  <defs
     id="defs2">
    <clipPath
       clipPathUnits="userSpaceOnUse"
       id="clipPath4866">
      <path
         inkscape:connector-curvature="0"
         id="path4868"
         d="m -45.691909,-74.36667 h 25.098132 c 1.559369,0 2.81474,0.896356 2.81474,2.009775 v 31.479914 c 0,1.113393 -1.25537,2.009748 -2.81474,2.009748 h -25.098132 c -1.55937,0 -2.814738,-0.896355 -2.814738,-2.009748 v -31.479914 c 0,-1.113419 1.255368,-2.009775 2.814738,-2.009775 z"
         style="opacity:1;fill:#cccccc;fill-opacity:1;stroke:#2d2d2d;stroke-width:0.99999994;stroke-miterlimit:4;stroke-dasharray:none;stroke-dashoffset:0;stroke-opacity:1" />
    </clipPath>
  </defs>
  <sodipodi:namedview
     id="base"
     pagecolor="#ffffff"
     bordercolor="#666666"
     borderopacity="1.0"
     inkscape:pageopacity="0.0"
     inkscape:pageshadow="2"
     inkscape:zoom="0.47019064"
     inkscape:cx="570.77393"
     inkscape:cy="608.26392"
     inkscape:document-units="mm"
     inkscape:current-layer="layer1"
     showgrid="false"
     units="px"
     inkscape:snap-global="false"
     inkscape:window-width="1301"
     inkscape:window-height="744"
     inkscape:window-x="65"
     inkscape:window-y="24"
     inkscape:window-maximized="1"
     showguides="false"
     fit-margin-top="0"
     fit-margin-left="0"
     fit-margin-right="0"
     fit-margin-bottom="0"
     inkscape:pagecheckerboard="false" />
  <metadata
     id="metadata5">
    <rdf:RDF>
      <cc:Work
         rdf:about="">
        <dc:format>image/svg+xml</dc:format>
        <dc:type
           rdf:resource="http://purl.org/dc/dcmitype/StillImage" />
        <dc:title>Medical Icons</dc:title>
        <dc:creator>
          <cc:Agent>
            <dc:title>www.inkscapeforum.it</dc:title>
          </cc:Agent>
        </dc:creator>
        <cc:license
           rdf:resource="http://creativecommons.org/licenses/by-nc/4.0/" />
        <dc:description>Medical Icons</dc:description>
      </cc:Work>
      <cc:License
         rdf:about="http://creativecommons.org/licenses/by-nc/4.0/">
        <cc:permits
           rdf:resource="http://creativecommons.org/ns#Reproduction" />
        <cc:permits
           rdf:resource="http://creativecommons.org/ns#Distribution" />
        <cc:requires
           rdf:resource="http://creativecommons.org/ns#Notice" />
        <cc:requires
           rdf:resource="http://creativecommons.org/ns#Attribution" />
        <cc:prohibits
           rdf:resource="http://creativecommons.org/ns#CommercialUse" />
        <cc:permits
           rdf:resource="http://creativecommons.org/ns#DerivativeWorks" />
      </cc:License>
    </rdf:RDF>
  </metadata>
  <g
     inkscape:label="Layer 1"
     inkscape:groupmode="layer"
     id="layer1"
     transform="translate(50.130628,201.78658)"
     sodipodi:insensitive="true">
    <rect
       style="opacity:0.42900002;fill:#ccff42;fill-opacity:1;stroke:none;stroke-width:2;stroke-miterlimit:4;stroke-dasharray:none;stroke-dashoffset:0;stroke-opacity:1"
       id="rect6771"
       width="303.24741"
       height="321.87299"
       x="-48.96653"
       y="-200.62248"
       ry="14.209791" />
    <g
       id="g5633"
       transform="matrix(-0.00267436,-0.61186577,0.61186577,-0.00267436,-74.511047,233.95203)" />
    <g
       id="g6457">
      <g
         transform="matrix(0.9399772,0,0,0.9399772,23.255855,-150.41371)"
         id="g4666">
        <path
           style="opacity:1;fill:#ffffff;fill-opacity:1;stroke:#2d2d2d;stroke-width:2;stroke-miterlimit:4;stroke-dasharray:none;stroke-dashoffset:0;stroke-opacity:1"
           d="m 26.938146,243.75854 c -0.527251,-0.002 -0.984697,0.10317 -1.270725,0.44287 -3.649602,2.49873 -5.3062,10.65254 -9.259898,16.18402 -2.653332,3.71218 -6.8603943,4.38461 -8.7529543,7.35872 -1.532392,2.40813 -1.20106,7.13269 -0.02997,9.83145 0.337744,0.58223 1.069642,1.08638 2.09703,1.51618 a 8.7474945,8.7474945 0 0 1 8.2857973,-5.96863 8.7474945,8.7474945 0 0 1 8.690427,7.83518 c 0.62234,-0.0164 1.243023,-0.0379 1.859317,-0.0677 0.361014,0.10149 0.740495,0.15916 1.134814,0.15916 h 19.19056 a 8.7474945,8.7474945 0 0 1 8.675957,-7.68997 8.7474945,8.7474945 0 0 1 8.672338,7.68997 h 1.185975 c 2.307097,0 4.164603,-1.8575 4.164603,-4.1646 v -28.6613 c 0,-2.3071 -1.857506,-4.16409 -4.164603,-4.16409 H 29.691982 c -0.801436,0 -1.875083,-0.29845 -2.753836,-0.30127 z"
           id="rect4507"
           inkscape:connector-curvature="0" />
        <g
           id="g4592"
           transform="translate(74.856401,0.33492797)">
          <path
             inkscape:connector-curvature="0"
             id="path4530"
             d="m -12.515416,284.31339 a 6.0974925,6.0974925 0 0 1 -8.458255,1.67834 6.0974925,6.0974925 0 0 1 -1.678334,-8.45826 6.0974925,6.0974925 0 0 1 8.458253,-1.67834 6.0974925,6.0974925 0 0 1 1.678336,8.45826 z"
             style="opacity:1;fill:#999999;fill-opacity:1;stroke:#2d2d2d;stroke-width:0.83760542;stroke-miterlimit:4;stroke-dasharray:none;stroke-dashoffset:0;stroke-opacity:1" />
          <path
             transform="matrix(0.34811281,0.23283722,-0.23283722,0.34811281,32.478847,182.73757)"
             d="m 30.980469,252.2832 c -4.737305,2.5e-4 -9.046633,4.30957 -9.046875,9.04688 2.45e-4,4.7373 4.309572,9.04663 9.046875,9.04687 4.737707,3.9e-4 9.048583,-4.30916 9.048828,-9.04687 -2.42e-4,-4.73771 -4.311119,-9.04727 -9.048828,-9.04688 z"
             id="path4553"
             style="opacity:1;fill:#cccccc;fill-opacity:1;stroke:#2d2d2d;stroke-width:2.39899993;stroke-miterlimit:4;stroke-dasharray:none;stroke-dashoffset:0;stroke-opacity:1"
             inkscape:original="M 30.980469 246.77148 A 14.559344 14.559344 0 0 0 16.421875 261.33008 A 14.559344 14.559344 0 0 0 30.980469 275.88867 A 14.559344 14.559344 0 0 0 45.541016 261.33008 A 14.559344 14.559344 0 0 0 30.980469 246.77148 z "
             inkscape:radius="-5.511168"
             sodipodi:type="inkscape:offset" />
          <circle
             transform="rotate(33.776809)"
             r="0.59614205"
             cy="243.10674"
             cx="141.60129"
             id="path4563"
             style="opacity:1;fill:#2d2d2d;fill-opacity:1;stroke:none;stroke-width:0.41880268;stroke-miterlimit:4;stroke-dasharray:none;stroke-dashoffset:0;stroke-opacity:1" />
        </g>
        <g
           id="g4600"
           transform="translate(34.999973,0.16746399)">
          <path
             style="opacity:1;fill:#999999;fill-opacity:1;stroke:#2d2d2d;stroke-width:0.83760542;stroke-miterlimit:4;stroke-dasharray:none;stroke-dashoffset:0;stroke-opacity:1"
             d="m -12.515416,284.31339 a 6.0974925,6.0974925 0 0 1 -8.458255,1.67834 6.0974925,6.0974925 0 0 1 -1.678334,-8.45826 6.0974925,6.0974925 0 0 1 8.458253,-1.67834 6.0974925,6.0974925 0 0 1 1.678336,8.45826 z"
             id="path4594"
             inkscape:connector-curvature="0" />
          <path
             sodipodi:type="inkscape:offset"
             inkscape:radius="-5.511168"
             inkscape:original="M 30.980469 246.77148 A 14.559344 14.559344 0 0 0 16.421875 261.33008 A 14.559344 14.559344 0 0 0 30.980469 275.88867 A 14.559344 14.559344 0 0 0 45.541016 261.33008 A 14.559344 14.559344 0 0 0 30.980469 246.77148 z "
             style="opacity:1;fill:#cccccc;fill-opacity:1;stroke:#2d2d2d;stroke-width:2.39899993;stroke-miterlimit:4;stroke-dasharray:none;stroke-dashoffset:0;stroke-opacity:1"
             id="path4596"
             d="m 30.980469,252.2832 c -4.737305,2.5e-4 -9.046633,4.30957 -9.046875,9.04688 2.45e-4,4.7373 4.309572,9.04663 9.046875,9.04687 4.737707,3.9e-4 9.048583,-4.30916 9.048828,-9.04687 -2.42e-4,-4.73771 -4.311119,-9.04727 -9.048828,-9.04688 z"
             transform="matrix(0.34811281,0.23283722,-0.23283722,0.34811281,32.478847,182.73757)" />
          <circle
             style="opacity:1;fill:#2d2d2d;fill-opacity:1;stroke:none;stroke-width:0.41880268;stroke-miterlimit:4;stroke-dasharray:none;stroke-dashoffset:0;stroke-opacity:1"
             id="circle4598"
             cx="141.60129"
             cy="243.10674"
             r="0.59614205"
             transform="rotate(33.776809)" />
        </g>
        <g
           id="g4618"
           transform="matrix(1.028724,0,0,0.64292599,21.014495,77.770041)">
          <path
             sodipodi:nodetypes="ssccsss"
             inkscape:connector-curvature="0"
             id="rect4602"
             d="M 16.731295,256.43402 H 12.72807 c -0.103957,0 -0.187647,-0.10898 -0.187647,-0.24434 -0.315336,-6.39251 -0.378595,-7.31485 4.190872,-7.24867 0.103957,0 0.187654,0.10897 0.187654,0.24433 v 7.00434 c 0,0.13536 -0.0837,0.24434 -0.187654,0.24434 z"
             style="opacity:1;fill:#0084c8;fill-opacity:1;stroke:#2d2d2d;stroke-width:1;stroke-miterlimit:4;stroke-dasharray:none;stroke-dashoffset:0;stroke-opacity:1" />
          <path
             style="opacity:1;fill:#b50000;fill-opacity:1;stroke:#b50000;stroke-width:0.68808901;stroke-miterlimit:4;stroke-dasharray:none;stroke-dashoffset:0;stroke-opacity:1"
             d="m 15.360373,255.02421 h -1.201741 c -0.03121,0 -0.05633,-0.0591 -0.05633,-0.13259 -0.09466,-3.46883 -0.113651,-3.96933 1.258071,-3.93343 0.03121,0 0.05633,0.0591 0.05633,0.13258 v 3.80085 c 0,0.0734 -0.02512,0.13259 -0.05633,0.13259 z"
             id="path4605"
             inkscape:connector-curvature="0"
             sodipodi:nodetypes="ssccsss" />
          <rect
             rx="0.11915744"
             ry="0.11915744"
             y="257.02438"
             x="10.431074"
             height="0.23831491"
             width="8.4440498"
             id="rect4611"
             style="opacity:1;fill:#b50000;fill-opacity:1;stroke:#2d2d2d;stroke-width:1.4267571;stroke-miterlimit:4;stroke-dasharray:none;stroke-dashoffset:0;stroke-opacity:1" />
        </g>
        <path
           style="opacity:1;fill:#dc0000;fill-opacity:1;stroke:#2d2d2d;stroke-width:0.69912225;stroke-miterlimit:4;stroke-dasharray:none;stroke-dashoffset:0;stroke-opacity:1"
           d="m 54.663014,246.94536 c -0.09729,0 -0.175582,0.0783 -0.175582,0.17558 v 4.39029 h -4.390653 c -0.09729,0 -0.175583,0.0783 -0.175583,0.17559 v 4.21507 c 0,0.0973 0.07829,0.17558 0.175583,0.17558 h 4.390653 v 4.39029 c 0,0.0973 0.07829,0.17558 0.175582,0.17558 h 4.214709 c 0.09729,0 0.175583,-0.0783 0.175583,-0.17558 v -4.39029 h 4.390292 c 0.09729,0 0.175944,-0.0783 0.175944,-0.17558 v -4.21507 c 0,-0.0973 -0.07865,-0.17559 -0.175944,-0.17559 h -4.390292 v -4.39029 c 0,-0.0973 -0.07829,-0.17558 -0.175583,-0.17558 z"
           id="rect4620"
           inkscape:connector-curvature="0" />
        <path
           style="opacity:1;fill:#cccccc;fill-opacity:1;stroke:none;stroke-width:1.77279615;stroke-miterlimit:4;stroke-dasharray:none;stroke-dashoffset:0;stroke-opacity:1"
           d="m 65.820068,244.98106 c 1.424604,0.4808 2.461614,2.00516 2.461614,3.82476 v 27.42861 c 0,1.2553 -0.493782,2.37026 -1.267296,3.09976 0.07698,0.34399 0.13508,0.69335 0.173953,1.04595 h 0.973699 c 1.894154,0 3.419191,-1.77762 3.419191,-3.98549 v -27.4286 c 0,-2.20787 -1.525037,-3.98499 -3.419191,-3.98499 z"
           id="path4625"
           inkscape:connector-curvature="0"
           sodipodi:nodetypes="cssccssssc" />
        <path
           style="opacity:1;fill:#dc0000;fill-opacity:1;stroke:#2d2d2d;stroke-width:1.00953722;stroke-miterlimit:4;stroke-dasharray:none;stroke-dashoffset:0;stroke-opacity:1"
           d="m 14.775632,263.15276 h 57.302056 v 5.36001 l -64.5532425,0.17291 c 0.4586693,-2.66485 3.5183765,-4.2399 7.2511865,-5.53292 z"
           id="rect4521"
           inkscape:connector-curvature="0"
           sodipodi:nodetypes="ccccc" />
        <g
           id="g4642">
          <path
             sodipodi:nodetypes="ccccsssscc"
             id="path4630"
             d="m 26.47304,248.1689 c -0.199164,0 -0.376512,0.19693 -0.494979,0.50705 -1.211131,2.00148 -3.36301,9.33155 -2.932469,10.96759 0.245729,0.93374 0.569524,1.28685 1.995211,1.26056 0.05608,0.0347 1.370992,-0.071 1.432237,-0.071 h 5.85932 c 0.358332,0 0.646835,-0.63595 0.646835,-1.42583 v -9.81262 c 0,-0.78987 -0.288503,-1.42565 -0.646835,-1.42565 z"
             style="opacity:1;fill:#ffffff;fill-opacity:1;stroke:#2d2d2d;stroke-width:1.0036521;stroke-miterlimit:4;stroke-dasharray:none;stroke-dashoffset:0;stroke-opacity:1"
             inkscape:connector-curvature="0" />
          <path
             inkscape:connector-curvature="0"
             id="path4635"
             d="m 26.695756,248.18317 c -0.199165,0 -0.376595,0.19683 -0.495062,0.50695 -1.21113,2.00148 -3.363177,9.33176 -2.932636,10.9678 0.245729,0.93374 0.569539,1.28668 1.995225,1.26039 0.05608,0.0347 1.371227,-0.0708 1.432473,-0.0708 h 0.263033 c -0.646253,-0.14411 -0.867233,-0.51448 -1.044898,-1.18959 -0.430541,-1.63604 1.721506,-8.96632 2.932636,-10.9678 0.118468,-0.31012 0.295897,-0.50695 0.495062,-0.50695 z"
             style="opacity:1;fill:#cccccc;fill-opacity:1;stroke:#2d2d2d;stroke-width:1.0036521;stroke-miterlimit:4;stroke-dasharray:none;stroke-dashoffset:0;stroke-opacity:1" />
        </g>
      </g>
      <g
         id="g5535"
         transform="matrix(0.57069861,-0.22065803,0.22065803,0.57069861,-56.799774,-85.40577)">
        <rect
           rx="19.656876"
           ry="19.656876"
           y="280.42191"
           x="-100.88951"
           height="39.313751"
           width="106.57343"
           id="rect5527"
           style="opacity:1;fill:#dc0000;fill-opacity:1;stroke:#2d2d2d;stroke-width:2;stroke-miterlimit:4;stroke-dasharray:none;stroke-dashoffset:0;stroke-opacity:1" />
        <path
           inkscape:connector-curvature="0"
           id="path5529"
           d="m -48.457349,319.73565 h -33.7226 c -10.88991,0 -19.656881,-8.76696 -19.656881,-19.65687 0,-10.88991 8.766971,-19.65688 19.656881,-19.65688 v 0 h 33.474035"
           style="opacity:1;fill:#ffffff;fill-opacity:1;stroke:#2d2d2d;stroke-width:2;stroke-miterlimit:4;stroke-dasharray:none;stroke-dashoffset:0;stroke-opacity:1" />
        <path
           inkscape:connector-curvature="0"
           id="path5531"
           d="m -48.705992,280.77701 0.248723,38.6028"
           style="fill:#2d2d2d;fill-opacity:1;stroke:#2d2d2d;stroke-width:1.98247838;stroke-linecap:butt;stroke-linejoin:miter;stroke-miterlimit:4;stroke-dasharray:none;stroke-opacity:1" />
        <rect
           rx="1.8946387"
           ry="1.8946387"
           y="287.05313"
           x="-44.524002"
           height="3.7892773"
           width="40.73473"
           id="rect5533"
           style="opacity:0.75899999;fill:#ffffff;fill-opacity:1;stroke:none;stroke-width:1.47261345;stroke-miterlimit:4;stroke-dasharray:none;stroke-dashoffset:0;stroke-opacity:1" />
      </g>
      <g
         transform="translate(127.92797,-248.98838)"
         id="g5579">
        <path
           style="opacity:1;fill:#f2edea;fill-opacity:1;stroke:#2d2d2d;stroke-width:1.1621058;stroke-miterlimit:4;stroke-dasharray:none;stroke-dashoffset:0;stroke-opacity:1"
           d="M -9.938639,181.96396 A 24.4947,24.4947 0 0 1 -1.7105,148.31462 24.4947,24.4947 0 0 1 31.938834,156.54276 24.4947,24.4947 0 0 1 23.7107,190.1921 24.4947,24.4947 0 0 1 -9.938639,181.96396 Z"
           id="rect5539"
           inkscape:connector-curvature="0" />
        <path
           style="opacity:1;fill:#d7d2cf;fill-opacity:1;stroke:none;stroke-width:1.13989305;stroke-miterlimit:4;stroke-dasharray:none;stroke-dashoffset:0;stroke-opacity:1"
           d="m 10.418817,145.0625 c -4.7743293,0.0495 -9.72064321,2.02253 -13.102077,4.5838 3.45942107,-1.7668 7.3087515,-2.70971 11.2251284,-2.74963 13.5272966,-0.12932 24.6023316,10.31662 24.7368646,23.33173 0.07742,7.93658 -4.002455,15.3776 -10.854613,19.79701 8.087371,-4.12411 13.110157,-12.24247 13.022656,-21.04858 -0.13429,-13.01527 -11.500491,-24.04365 -25.027959,-23.91433 z"
           id="path5557"
           inkscape:connector-curvature="0"
           sodipodi:nodetypes="ccccccc" />
        <path
           style="opacity:1;fill:#e2ddda;fill-opacity:1;stroke:#2d2d2d;stroke-width:1.1621058;stroke-miterlimit:4;stroke-dasharray:none;stroke-dashoffset:0;stroke-opacity:1"
           d="m 28.212139,161.54166 -31.9962893,19.42295 c -0.521507,0.3162 -1.195839,0.15155 -1.512322,-0.36983 l -1.285342,-2.1174 c -0.316484,-0.52135 -0.151544,-1.19585 0.369829,-1.51233 L 25.784332,157.54211 c 0.521507,-0.3162 1.195848,-0.15155 1.512322,0.36984 l 1.285341,2.1174 c 0.316485,0.52134 0.151549,1.19585 -0.369752,1.51234 z"
           id="path5574"
           inkscape:connector-curvature="0" />
      </g>
      <g
         transform="translate(117.07393,-252.88869)"
         id="g5665">
        <path
           style="opacity:1;fill:#dceeee;fill-opacity:1;stroke:#2d2d2d;stroke-width:1.79279447;stroke-miterlimit:4;stroke-dasharray:none;stroke-dashoffset:0;stroke-opacity:1"
           d="m 21.853881,231.41797 c -4.185883,0 -7.555611,4.02361 -7.555611,9.02167 v 36.08721 c 0,3.91802 2.07123,7.23628 4.982644,8.48785 v 6.39547 c 0,1.42551 1.147461,2.57349 2.572967,2.57349 1.425509,0 2.573489,-1.14798 2.573489,-2.57349 v -6.39547 c 2.911411,-1.25157 4.982641,-4.56983 4.982641,-8.48785 v -36.08721 c 0,-4.99806 -3.370244,-9.02167 -7.55613,-9.02167 z"
           id="rect5592"
           inkscape:connector-curvature="0" />
        <path
           inkscape:connector-curvature="0"
           style="opacity:1;fill:#2d2d2d;fill-opacity:1;stroke:#2d2d2d;stroke-width:2.44262028;stroke-miterlimit:4;stroke-dasharray:none;stroke-dashoffset:0;stroke-opacity:1"
           d="m 62.517578,67.992188 c -0.63641,0 -1.148437,0.512027 -1.148437,1.148437 v 0.287109 c 0,0.63641 0.512027,1.148438 1.148437,1.148438 h 13.433594 c 0.63641,0 1.148437,-0.512028 1.148437,-1.148438 v -0.287109 c 0,-0.63641 -0.512027,-1.148437 -1.148437,-1.148437 z m 0,16.330078 c -0.63641,0 -1.148437,0.512027 -1.148437,1.148437 v 0.287109 c 0,0.63641 0.512027,1.148438 1.148437,1.148438 h 13.433594 c 0.63641,0 1.148437,-0.512028 1.148437,-1.148438 v -0.287109 c 0,-0.63641 -0.512027,-1.148437 -1.148437,-1.148437 z m 0,16.328124 c -0.63641,0 -1.148437,0.51398 -1.148437,1.15039 v 0.28711 c 0,0.63641 0.512027,1.14844 1.148437,1.14844 h 13.433594 c 0.63641,0 1.148437,-0.51203 1.148437,-1.14844 v -0.28711 c 0,-0.63641 -0.512027,-1.15039 -1.148437,-1.15039 z m 0,16.33008 c -0.63641,0 -1.148437,0.51203 -1.148437,1.14844 v 0.28906 c 0,0.63641 0.512027,1.14844 1.148437,1.14844 h 13.433594 c 0.63641,0 1.148437,-0.51203 1.148437,-1.14844 v -0.28906 c 0,-0.63641 -0.512027,-1.14844 -1.148437,-1.14844 z m 0,16.33008 c -0.63641,0 -1.148437,0.51202 -1.148437,1.14843 v 0.28711 c 0,0.63641 0.512027,1.15039 1.148437,1.15039 h 13.433594 c 0.63641,0 1.148437,-0.51398 1.148437,-1.15039 v -0.28711 c 0,-0.63641 -0.512027,-1.14843 -1.148437,-1.14843 z m 0,16.33007 c -0.63641,0 -1.148437,0.51203 -1.148437,1.14844 v 0.28711 c 0,0.63641 0.512027,1.14844 1.148437,1.14844 h 13.433594 c 0.63641,0 1.148437,-0.51203 1.148437,-1.14844 v -0.28711 c 0,-0.63641 -0.512027,-1.14844 -1.148437,-1.14844 z"
           transform="matrix(0.26458333,0,0,0.26458333,0,229.26665)"
           id="rect5602" />
        <path
           style="opacity:1;fill:#cccccc;fill-opacity:1;stroke:#2d2d2d;stroke-width:0.27674958;stroke-miterlimit:4;stroke-dasharray:none;stroke-dashoffset:0;stroke-opacity:1"
           d="m 21.846,247.03335 h 0.01628 c 0.252556,0 0.455876,0.45638 0.455876,1.02325 v 36.83671 c 0,0.56687 -0.20332,1.02324 -0.455876,1.02324 H 21.846 c -0.252555,0 -0.455876,-0.45637 -0.455876,-1.02324 V 248.0566 c 0,-0.56687 0.203321,-1.02325 0.455876,-1.02325 z"
           id="rect5613"
           inkscape:connector-curvature="0" />
        <rect
           rx="0.54974926"
           style="opacity:1;fill:#dc0000;fill-opacity:1;stroke:none;stroke-width:0.08616073;stroke-miterlimit:4;stroke-dasharray:none;stroke-dashoffset:0;stroke-opacity:1"
           id="rect5598"
           width="0.30794406"
           height="20.890469"
           x="21.700169"
           y="264.47443"
           ry="0.54974926" />
        <path
           style="opacity:1;fill:#dc0000;fill-opacity:1;stroke:none;stroke-width:0.22403422;stroke-miterlimit:4;stroke-dasharray:none;stroke-dashoffset:0;stroke-opacity:1"
           d="m 20.778762,292.78565 c -0.939666,-0.37668 -0.627288,-1.53045 -0.627288,-4.9808 0,-3.03709 -0.124269,-2.86927 0.478364,-2.52148 0.349981,0.20199 1.208496,0.0748 1.842875,-0.0346 l 1.103575,0.005 v 3.3097 c 0,2.44037 0.0088,3.24601 -0.134026,3.53621 -0.464605,0.94371 -1.770146,1.52693 -2.628904,0.73173 z"
           id="path5647"
           inkscape:connector-curvature="0"
           sodipodi:nodetypes="cscccsscc" />
        <rect
           rx="2.6399369"
           style="opacity:1;fill:#ffffff;fill-opacity:1;stroke:#ffffff;stroke-width:0.14312375;stroke-miterlimit:4;stroke-dasharray:none;stroke-dashoffset:0;stroke-opacity:1"
           id="rect5649"
           width="1.9019881"
           height="36.959118"
           x="25.065086"
           y="236.82088"
           ry="2.6399369" />
      </g>
      <g
         transform="matrix(1.2961727,0,0,1.2961727,106.51489,-589.14665)"
         id="g5840">
        <path
           id="path5737"
           style="opacity:1;fill:#cbcbc7;fill-opacity:1;stroke:#2d2d2d;stroke-width:1.16675735;stroke-miterlimit:4;stroke-dasharray:none;stroke-dashoffset:0;stroke-opacity:1"
           d="m 16.213897,299.4325 c -0.334562,0 -0.603844,0.26928 -0.603844,0.60384 v 6.19007 c 0,0.33456 0.269282,0.60384 0.603844,0.60384 h 18.036302 c 0.334562,0 0.603843,-0.26928 0.603843,-0.60384 v -6.19007 c 0,-0.33456 -0.269281,-0.60384 -0.603843,-0.60384 H 16.213897 v 0 m 4.380045,2.14164 h 9.276211 c 0.140848,0 0.254137,0.11329 0.254137,0.25414 v 2.6059 c 0,0.14084 -0.113289,0.25444 -0.254137,0.25444 h -9.276211 c -0.140848,0 -0.254137,-0.1136 -0.254137,-0.25444 v -2.6059 c 0,-0.14085 0.113289,-0.25414 0.254137,-0.25414 v 0 m 11.880321,37.96362 -6.273538,-10e-6 m -1.106913,0 h -6.458023 m -1.106912,10e-6 h -3.688158 c -6.8360425,-4.1046 -2.628768,-22.05084 -2.628768,-29.57364 0,-1.45633 1.172431,-2.62876 2.628768,-2.62876 v 0 h 22.782658 c 1.456337,0 2.628767,1.17243 2.628767,2.62876 -1.616735,4.55794 4.308578,29.36414 -2.628767,29.57364 h -3.042202"
           inkscape:connector-curvature="0"
           sodipodi:nodetypes="cssssssscccssssssscccccccccccsccc" />
        <path
           inkscape:connector-curvature="0"
           id="path5802"
           d="m 25.523053,334.12679 c 0.0671,0 0.12111,0.26708 0.12111,0.59884 v 12.37605 c 0,0.33173 -0.05401,0.59884 -0.12111,0.59884 -0.0671,0 -0.121111,-0.26709 -0.121111,-0.59884 v -12.37605 c 0,-0.33176 0.05402,-0.59884 0.121111,-0.59884 z"
           style="opacity:1;fill:#dc0000;fill-opacity:1;stroke:#b50000;stroke-width:0.97304368;stroke-miterlimit:4;stroke-dasharray:none;stroke-dashoffset:0;stroke-opacity:1" />
        <path
           inkscape:connector-curvature="0"
           id="path5800"
           d="m 16.572333,321.52291 c 6.703793,2.65599 5.980361,0.0465 17.319428,0 1.107085,-0.004 1.998395,0.59611 1.998395,1.33657 v 13.69987 c 0,0.74047 -0.891285,1.33657 -1.998395,1.33657 H 16.572333 c -1.107109,0 -1.998394,-0.5961 -1.998394,-1.33657 v -13.69987 c 0,-0.74046 1.070425,-1.70423 1.998394,-1.33657 z"
           style="opacity:1;fill:#b50000;fill-opacity:1;stroke:none;stroke-width:1.24341118;stroke-miterlimit:4;stroke-dasharray:none;stroke-dashoffset:0;stroke-opacity:1"
           sodipodi:nodetypes="sssssssss" />
        <g
           id="g5827">
          <path
             inkscape:connector-curvature="0"
             id="path5815"
             d="M 16.178172,323.74615 H 33.269629"
             style="fill:none;stroke:#000000;stroke-width:0.26458332px;stroke-linecap:butt;stroke-linejoin:miter;stroke-opacity:1" />
          <path
             style="fill:none;stroke:#000000;stroke-width:0.26458332px;stroke-linecap:butt;stroke-linejoin:miter;stroke-opacity:1"
             d="M 16.178172,320.39474 H 33.269629"
             id="path5817"
             inkscape:connector-curvature="0" />
          <path
             inkscape:connector-curvature="0"
             id="path5819"
             d="M 16.178172,317.04333 H 33.269629"
             style="fill:none;stroke:#000000;stroke-width:0.26458332px;stroke-linecap:butt;stroke-linejoin:miter;stroke-opacity:1" />
          <path
             style="fill:none;stroke:#000000;stroke-width:0.26458332px;stroke-linecap:butt;stroke-linejoin:miter;stroke-opacity:1"
             d="M 16.178172,313.69192 H 33.269629"
             id="path5821"
             inkscape:connector-curvature="0" />
        </g>
        <rect
           rx="0.67375797"
           style="opacity:0.394;fill:#ffffff;fill-opacity:1;stroke:#ffffff;stroke-width:1.02832699;stroke-miterlimit:4;stroke-dasharray:none;stroke-dashoffset:0;stroke-opacity:1"
           id="rect5829"
           width="4.3638721"
           height="24.456118"
           x="31.479099"
           y="310.34387"
           ry="0.67375797" />
      </g>
      <g
         transform="matrix(0.62460658,0,0,0.62460658,105.02745,-67.863027)"
         id="g5995">
        <path
           style="opacity:1;fill:#cccccc;fill-opacity:1;stroke:#2d2d2d;stroke-width:2;stroke-miterlimit:4;stroke-dasharray:none;stroke-dashoffset:0;stroke-opacity:1"
           d="m 24.037971,232.28729 h 60.47437 c 5.799927,0 10.469183,4.66926 10.469183,10.46918 v 40.64307 c 0,5.79993 -4.669256,10.46918 -10.469183,10.46918 h -60.47437 c -5.799927,0 -10.469182,-4.66925 -10.469182,-10.46918 v -9.75353 -30.88954 c 0,-5.79992 4.669255,-10.46918 10.469182,-10.46918 z"
           id="rect5885"
           inkscape:connector-curvature="0"
           sodipodi:nodetypes="ssssssscss" />
        <path
           sodipodi:type="inkscape:offset"
           inkscape:radius="-6.0015807"
           inkscape:original="M 24.037109 232.28711 C 18.237182 232.28711 13.568359 236.95594 13.568359 242.75586 L 13.568359 273.64648 L 13.568359 283.40039 C 13.568359 289.20032 18.237182 293.86914 24.037109 293.86914 L 84.511719 293.86914 C 90.311646 293.86914 94.982422 289.20032 94.982422 283.40039 L 94.982422 242.75586 C 94.982422 236.95594 90.311646 232.28711 84.511719 232.28711 L 24.037109 232.28711 z "
           style="opacity:1;fill:#666666;fill-opacity:1;stroke:#2d2d2d;stroke-width:2;stroke-miterlimit:4;stroke-dasharray:none;stroke-dashoffset:0;stroke-opacity:1"
           id="path5891"
           d="m 24.037109,238.28906 c -2.579155,0 -4.466797,1.88765 -4.466797,4.4668 v 30.89062 9.75391 c 0,2.57917 1.887635,4.4668 4.466797,4.4668 h 60.47461 c 2.579162,0 4.46875,-1.88898 4.46875,-4.4668 v -40.64453 c 0,-2.5778 -1.889595,-4.4668 -4.46875,-4.4668 z" />
        <path
           style="fill:none;stroke:#ffffff;stroke-width:1.97710598;stroke-linecap:butt;stroke-linejoin:miter;stroke-miterlimit:4;stroke-dasharray:none;stroke-opacity:1"
           d="m 20.679527,261.60461 18.865505,0.2194 4.501996,-8.55645 3.430093,14.48015 6.21704,-22.15903 2.572572,26.10818 4.930755,-13.82198 3.215712,10.31163 3.430093,-7.45948 19.937407,0.21941"
           id="path5901"
           inkscape:connector-curvature="0" />
        <path
           d="m 24.037109,238.28906 c -2.579155,0 -4.466797,1.88765 -4.466797,4.4668 v 30.89062 9.75391 c 0,2.57917 1.887635,4.4668 4.466797,4.4668 h 60.47461 c 2.579162,0 4.46875,-1.88898 4.46875,-4.4668 v -40.64453 c 0,-2.5778 -1.889595,-4.4668 -4.46875,-4.4668 z"
           id="path5945"
           style="opacity:0.38299997;fill:#ffffff;fill-opacity:1;stroke:none;stroke-width:2;stroke-miterlimit:4;stroke-dasharray:none;stroke-dashoffset:0;stroke-opacity:1"
           inkscape:original="M 24.037109 232.28711 C 18.237182 232.28711 13.568359 236.95594 13.568359 242.75586 L 13.568359 273.64648 L 13.568359 283.40039 C 13.568359 289.20032 18.237182 293.86914 24.037109 293.86914 L 84.511719 293.86914 C 90.311646 293.86914 94.982422 289.20032 94.982422 283.40039 L 94.982422 242.75586 C 94.982422 236.95594 90.311646 232.28711 84.511719 232.28711 L 24.037109 232.28711 z "
           inkscape:radius="-6.0015807"
           sodipodi:type="inkscape:offset"
           transform="matrix(0.49486296,0,0,0.73438017,10.999273,63.942422)" />
        <path
           style="opacity:1;fill:#cccccc;fill-opacity:1;stroke:#2d2d2d;stroke-width:1;stroke-miterlimit:4;stroke-dasharray:none;stroke-dashoffset:0;stroke-opacity:1"
           d="m 22.797685,273.50053 h 63.433086 c 4.554994,0 8.222011,4.3127 8.222011,9.66972 0,5.35702 -3.667017,9.66971 -8.222011,9.66971 H 22.797685 c -4.554994,0 -8.222011,-4.31269 -8.222011,-9.66971 0,-3.20557 1.313037,-6.0372 3.343669,-7.79461 1.362878,-1.1795 3.048998,-1.87511 4.878342,-1.87511 z"
           id="rect5887"
           inkscape:connector-curvature="0"
           sodipodi:nodetypes="ssssssss" />
        <g
           id="g5915"
           transform="translate(0,1.826556)">
          <circle
             r="4.9578266"
             cy="281.34369"
             cx="25.811016"
             id="path5895"
             style="opacity:1;fill:#cccccc;fill-opacity:1;stroke:#2d2d2d;stroke-width:2;stroke-miterlimit:4;stroke-dasharray:none;stroke-dashoffset:0;stroke-opacity:1" />
          <circle
             style="opacity:1;fill:#b50000;fill-opacity:1;stroke:#2d2d2d;stroke-width:0.94885856;stroke-miterlimit:4;stroke-dasharray:none;stroke-dashoffset:0;stroke-opacity:1"
             id="circle5903"
             cx="25.811016"
             cy="281.34369"
             r="2.3521383" />
        </g>
        <g
           id="g5911"
           transform="translate(0,2.3484371)">
          <circle
             style="opacity:1;fill:#cccccc;fill-opacity:1;stroke:#2d2d2d;stroke-width:2;stroke-miterlimit:4;stroke-dasharray:none;stroke-dashoffset:0;stroke-opacity:1"
             id="circle5905"
             cx="83.21743"
             cy="280.82181"
             r="4.9578266" />
          <circle
             r="2.3521383"
             cy="280.82181"
             cx="83.21743"
             id="circle5907"
             style="opacity:1;fill:#b50000;fill-opacity:1;stroke:#2d2d2d;stroke-width:0.94885856;stroke-miterlimit:4;stroke-dasharray:none;stroke-dashoffset:0;stroke-opacity:1" />
        </g>
        <g
           id="g5940"
           transform="matrix(0.30202346,0,0,0.30202346,38.049652,197.64619)"
           style="fill:#999999">
          <path
             style="opacity:1;fill:#999999;fill-opacity:1;stroke:#2d2d2d;stroke-width:1.96999836;stroke-miterlimit:4;stroke-dasharray:none;stroke-dashoffset:0;stroke-opacity:1"
             d="m 22.797685,273.50053 h 63.433086 c 4.554994,0 8.222011,4.3127 8.222011,9.66972 0,5.35702 -3.667017,9.66971 -8.222011,9.66971 H 22.797685 c -4.554994,0 -8.222011,-4.31269 -8.222011,-9.66971 0,-3.20557 1.313037,-6.0372 3.343669,-7.79461 1.362878,-1.1795 3.048998,-1.87511 4.878342,-1.87511 z"
             id="path5926"
             inkscape:connector-curvature="0"
             sodipodi:nodetypes="ssssssss" />
          <g
             id="g5932"
             transform="translate(0,1.826556)"
             style="fill:#999999">
            <circle
               r="4.9578266"
               cy="281.34369"
               cx="25.811016"
               id="circle5928"
               style="opacity:1;fill:#999999;fill-opacity:1;stroke:#2d2d2d;stroke-width:2;stroke-miterlimit:4;stroke-dasharray:none;stroke-dashoffset:0;stroke-opacity:1" />
            <circle
               style="opacity:1;fill:#999999;fill-opacity:1;stroke:#2d2d2d;stroke-width:0.94885856;stroke-miterlimit:4;stroke-dasharray:none;stroke-dashoffset:0;stroke-opacity:1"
               id="circle5930"
               cx="25.811016"
               cy="281.34369"
               r="2.3521383" />
          </g>
          <g
             id="g5938"
             transform="translate(0,2.3484371)"
             style="fill:#999999">
            <circle
               style="opacity:1;fill:#999999;fill-opacity:1;stroke:#2d2d2d;stroke-width:2;stroke-miterlimit:4;stroke-dasharray:none;stroke-dashoffset:0;stroke-opacity:1"
               id="circle5934"
               cx="83.21743"
               cy="280.82181"
               r="4.9578266" />
            <circle
               r="2.3521383"
               cy="280.82181"
               cx="83.21743"
               id="circle5936"
               style="opacity:1;fill:#999999;fill-opacity:1;stroke:#2d2d2d;stroke-width:0.94885856;stroke-miterlimit:4;stroke-dasharray:none;stroke-dashoffset:0;stroke-opacity:1" />
          </g>
        </g>
      </g>
      <path
         inkscape:connector-curvature="0"
         id="path6091"
         style="opacity:1;fill:none;fill-opacity:1;stroke:#000000;stroke-width:2.63451219;stroke-miterlimit:4;stroke-dasharray:none;stroke-dashoffset:0;stroke-opacity:1"
         d="m 68.301175,-59.135265 a 14.465034,14.465034 0 0 1 -12.23221,6.74428 14.465034,14.465034 0 0 1 -14.46504,-14.46504 14.465034,14.465034 0 0 1 5.95053,-11.693594 m 7.43029,-24.193381 a 4.3360434,4.3360434 0 0 1 -4.33605,4.336031 4.3360434,4.3360434 0 0 1 -4.33604,-4.336031 4.3360434,4.3360434 0 0 1 4.33604,-4.33605 4.3360434,4.3360434 0 0 1 4.33605,4.33605 z m -4.63432,7.202262 0.29903,21.530703 14.35381,0.29903 9.56919,16.44706 4.48556,-2.69133" />
      <g
         transform="translate(100.69563,-315.51742)"
         id="g4623">
        <rect
           rx="6.9837637"
           style="opacity:1;fill:#dceeee;fill-opacity:1;stroke:#000000;stroke-width:2;stroke-miterlimit:4;stroke-dasharray:none;stroke-dashoffset:0;stroke-opacity:1"
           id="rect4585"
           width="16.378195"
           height="59.17207"
           x="110.53781"
           y="206.9776"
           ry="6.9837637" />
        <rect
           rx="2.996325"
           style="opacity:1;fill:#dceeee;fill-opacity:1;stroke:#000000;stroke-width:2;stroke-miterlimit:4;stroke-dasharray:none;stroke-dashoffset:0;stroke-opacity:1"
           id="rect4587"
           width="23.997391"
           height="5.99265"
           x="106.72822"
           y="205.41513"
           ry="2.996325" />
        <path
           style="opacity:1;fill:#19aeff;fill-opacity:1;stroke:#19aeff;stroke-width:0.57345003;stroke-miterlimit:4;stroke-dasharray:none;stroke-dashoffset:0;stroke-opacity:1"
           d="m 125.77553,229.62639 c 0,0 -5.5616,3.37716 -8.60531,3.12453 -2.09216,-0.17365 -5.47353,-3.09296 -5.47353,-3.09296 l -0.0745,0.23902 c -0.0411,0.13136 -0.0643,7.35278 -0.0511,16.04779 l 0.024,15.8091 0.20694,0.40184 c 0.75673,1.46999 2.63052,2.49998 4.95846,2.72548 0.87525,0.0848 4.06325,0.0185 4.69938,-0.0977 2.10431,-0.38429 3.71207,-1.46078 4.30164,-2.87964 0.15618,-0.37586 0.16525,-1.24948 0.16525,-16.04329 0,-8.60526 -0.034,-15.77827 -0.0756,-15.94005 z"
           id="path4598"
           inkscape:connector-curvature="0"
           sodipodi:nodetypes="csccscccccscc" />
        <rect
           rx="0.50129282"
           style="opacity:0.74900004;fill:#ffffff;fill-opacity:1;stroke:#ffffff;stroke-width:1.15422821;stroke-miterlimit:4;stroke-dasharray:none;stroke-dashoffset:0;stroke-opacity:1"
           id="rect4605"
           width="1.6285861"
           height="36.594315"
           x="121.69623"
           y="219.33939"
           ry="0.50129282" />
        <path
           style="opacity:1;fill:#005c94;fill-opacity:1;stroke:none;stroke-width:0.59236348;stroke-miterlimit:4;stroke-dasharray:none;stroke-dashoffset:0;stroke-opacity:1"
           d="m 111.29975,242.68702 c 4.6e-4,1.20227 -0.003,2.03213 -0.002,3.31485 l 0.0255,16.08673 0.21677,0.40856 c 0.79354,1.49578 2.7584,2.54377 5.1996,2.77324 0.91782,0.0863 4.26101,0.0188 4.9281,-0.0994 2.20668,-0.39103 3.89257,-1.48617 4.51083,-2.92992 0.16378,-0.38246 0.17341,-1.27159 0.17341,-16.32494 0,-0.32018 -0.001,-0.51271 -0.002,-0.82872 -0.003,11.18162 -0.0241,12.5012 -0.17177,12.84605 -0.61826,1.44376 -2.30415,2.53889 -4.51084,2.92993 -0.66708,0.11824 -4.01027,0.18566 -4.92809,0.0994 -2.4412,-0.22945 -4.40606,-1.27744 -5.19962,-2.77322 l -0.21675,-0.40859 z"
           id="path4607"
           inkscape:connector-curvature="0" />
      </g>
      <g
         transform="matrix(0.32853137,0,0,0.32853137,55.704411,-156.88577)"
         id="g4723">
        <path
           inkscape:connector-curvature="0"
           style="fill:#dc0000;fill-opacity:1;stroke:#000000;stroke-width:7.55905533;stroke-linecap:butt;stroke-linejoin:miter;stroke-miterlimit:4;stroke-dasharray:none;stroke-opacity:1"
           d="m -104.1875,750.30078 c -120.8177,0.29709 -202.25506,139.49127 -190.41211,221.40625 26.14295,180.82467 200.745678,281.78527 344.142579,379.64647 C 192.93987,1253.4923 367.54259,1152.5317 393.68555,971.70703 410.08112,858.30261 247.69413,635.13453 49.542969,822.69727 -5.4784301,770.616 -57.743218,750.18658 -104.1875,750.30078 Z"
           transform="matrix(0.26458333,0,0,0.26458333,0,229.26665)"
           id="path4651" />
        <path
           inkscape:connector-curvature="0"
           id="path4661"
           d="m -52.17281,506.71905 37.7508,0.43903 9.00872,-17.12188 6.86378,28.97549 12.4406,-44.3413 5.14785,52.24375 9.86668,-27.65847 6.4348,20.63408 6.86378,-14.92678 39.89573,0.43905"
           style="fill:none;stroke:#ffffff;stroke-width:3.95628619;stroke-linecap:butt;stroke-linejoin:miter;stroke-miterlimit:4;stroke-dasharray:none;stroke-opacity:1" />
        <path
           sodipodi:nodetypes="ccsc"
           inkscape:connector-curvature="0"
           id="path4717"
           d="m 13.108244,446.93863 0.78281,139.12969 c 37.94043,-25.89244 84.13751,-52.6051 91.054496,-100.44829 4.35958,-30.15421 -39.055266,-89.64454 -91.837306,-38.6814 z"
           style="opacity:0.26100003;fill:#ffffff;fill-opacity:1;stroke:none;stroke-width:2;stroke-linecap:butt;stroke-linejoin:miter;stroke-miterlimit:4;stroke-dasharray:none;stroke-opacity:1" />
      </g>
      <g
         transform="translate(-5.0444104,3.4642515)"
         id="g4624">
        <path
           style="opacity:1;fill:#ffffff;fill-opacity:1;stroke:#2d2d2d;stroke-width:2;stroke-miterlimit:4;stroke-dasharray:none;stroke-dashoffset:0;stroke-opacity:1"
           d="M -28.041954,-16.927376 H 2.086481 c 1.925901,0 3.47636,1.77418 3.47636,3.97798 v 40.774495 c 0,2.2038 -1.550459,3.97798 -3.47636,3.97798 h -30.128435 c -1.925901,0 -3.47636,-1.77418 -3.47636,-3.97798 v -40.774495 c 0,-2.2038 1.550459,-3.97798 3.47636,-3.97798 z"
           id="rect5678"
           inkscape:connector-curvature="0" />
        <path
           style="opacity:1;fill:#2d2d2d;fill-opacity:1;stroke:#2d2d2d;stroke-width:2;stroke-miterlimit:4;stroke-dasharray:none;stroke-dashoffset:0;stroke-opacity:1"
           d="m -20.497002,-19.107332 c -0.272111,0 -0.491126,0.246632 -0.491126,0.553052 v 5.669449 c 0,0.306425 0.219015,0.553057 0.491126,0.553057 h 14.6695147 c 0.2721059,0 0.4911203,-0.246632 0.4911203,-0.553057 v -5.669449 c 0,-0.30642 -0.2190144,-0.553052 -0.4911203,-0.553052 z m 3.562433,1.961517 h 7.544643 c 0.1145567,0 0.2067009,0.103759 0.2067009,0.232765 v 2.386727 c 0,0.128997 -0.092144,0.23304 -0.2067009,0.23304 h -7.544643 c -0.114557,0 -0.206701,-0.104043 -0.206701,-0.23304 v -2.386727 c 0,-0.129009 0.09214,-0.232765 0.206701,-0.232765 z"
           id="rect5680"
           inkscape:connector-curvature="0" />
        <path
           style="opacity:1;fill:#cccccc;fill-opacity:1;stroke:#2d2d2d;stroke-width:1;stroke-miterlimit:4;stroke-dasharray:none;stroke-dashoffset:0;stroke-opacity:1"
           d="m -25.526802,-12.341486 h 25.098131 c 1.559369,0 2.81474,0.896346 2.81474,2.00976 v 31.479917 c 0,1.113406 -1.25537,2.009751 -2.81474,2.009751 h -25.098131 c -1.55937,0 -2.81474,-0.896345 -2.81474,-2.009751 v -31.479917 c 0,-1.113414 1.25537,-2.00976 2.81474,-2.00976 z"
           id="rect5696"
           inkscape:connector-curvature="0" />
        <g
           id="g4895"
           transform="translate(-13.046913,-8.0890861)">
          <circle
             r="1.0893043"
             cy="4.857964"
             cx="-11.572488"
             id="path4818"
             style="opacity:1;fill:#2d2d2d;fill-opacity:1;stroke:#2d2d2d;stroke-width:0.55101472;stroke-miterlimit:4;stroke-dasharray:none;stroke-dashoffset:0;stroke-opacity:1" />
          <path
             inkscape:connector-curvature="0"
             id="path4881"
             d="m -8.3500242,4.857964 c 16.5695795,0 16.5695795,0 16.5695795,0"
             style="fill:none;stroke:#000000;stroke-width:0.26458332px;stroke-linecap:butt;stroke-linejoin:miter;stroke-opacity:1" />
        </g>
        <g
           id="g4899"
           transform="translate(-13.046913,-8.0890861)">
          <circle
             style="opacity:1;fill:#2d2d2d;fill-opacity:1;stroke:#2d2d2d;stroke-width:0.55101472;stroke-miterlimit:4;stroke-dasharray:none;stroke-dashoffset:0;stroke-opacity:1"
             id="circle4883"
             cx="-11.572488"
             cy="11.207961"
             r="1.0893043" />
          <path
             style="fill:none;stroke:#000000;stroke-width:0.26458332px;stroke-linecap:butt;stroke-linejoin:miter;stroke-opacity:1"
             d="m -8.3500242,11.207965 c 16.5695795,0 16.5695795,0 16.5695795,0"
             id="path4885"
             inkscape:connector-curvature="0" />
        </g>
        <g
           id="g4903"
           transform="translate(-13.046913,-8.0890861)">
          <circle
             r="1.0893043"
             cy="17.028791"
             cx="-11.572488"
             id="circle4887"
             style="opacity:1;fill:#2d2d2d;fill-opacity:1;stroke:#2d2d2d;stroke-width:0.55101472;stroke-miterlimit:4;stroke-dasharray:none;stroke-dashoffset:0;stroke-opacity:1" />
          <path
             inkscape:connector-curvature="0"
             id="path4889"
             d="m -8.3500242,17.028802 c 16.5695795,0 16.5695795,0 16.5695795,0"
             style="fill:none;stroke:#000000;stroke-width:0.26458332px;stroke-linecap:butt;stroke-linejoin:miter;stroke-opacity:1" />
        </g>
        <path
           style="opacity:0.44200003;fill:#ffffff;fill-opacity:1;stroke:#2d2d2d;stroke-width:1;stroke-miterlimit:4;stroke-dasharray:none;stroke-dashoffset:0;stroke-opacity:1"
           d="m -10.21704,21.990846 c -0.865345,-1.819306 -1.242297,-3.565686 -1.241274,-5.750697 0.0013,-2.688597 0.760502,-5.162296 2.2703645,-7.3970995 1.1960046,-1.770248 3.5308079,-3.7169025 5.4678414,-4.5588405 1.599294,-0.695137 3.70041794,-1.1717355 5.1705723,-1.1728436 l 0.4159487,-2.261e-4 v 9.2215187 9.22152 l -0.2495697,0.368506 c -0.3024251,0.446552 -0.83323547,0.735947 -1.62690104,0.88698 -0.34203654,0.06509 -2.53904516,0.113045 -5.17891486,0.113045 H -9.773846 Z"
           id="path4879"
           inkscape:connector-curvature="0" />
      </g>
      <g
         transform="rotate(44.18472,236.98252,377.17382)"
         id="g5023">
        <g
           id="g4981">
          <g
             id="g4956">
            <g
               style="stroke-width:1.56446338"
               id="g4731"
               transform="matrix(0.84158732,-0.00486031,0.00486031,0.84158732,19.623482,56.254754)">
              <rect
                 rx="8.0551357"
                 transform="matrix(0.999947,0.01029535,-0.01031182,0.99994683,0,0)"
                 ry="8.0551357"
                 y="122.63605"
                 x="2.5740137"
                 height="67.974724"
                 width="17.93376"
                 id="rect4637"
                 style="opacity:1;fill:#e2954f;fill-opacity:1;stroke:#2d2d2d;stroke-width:1.56446338;stroke-miterlimit:4;stroke-dasharray:none;stroke-dashoffset:0;stroke-opacity:1" />
              <path
                 inkscape:connector-curvature="0"
                 id="path4639"
                 d="m 4.0949395,149.72149 a 1.3568872,1.3568872 0 0 0 -1.3977268,1.31441 1.3568872,1.3568872 0 0 0 1.3139146,1.3982 1.3568872,1.3568872 0 0 0 1.3982243,-1.31433 1.3568872,1.3568872 0 0 0 -1.3143387,-1.39821 z m 6.0220195,0.18619 a 1.3568872,1.3568872 0 0 0 -1.3982243,1.31433 1.3568872,1.3568872 0 0 0 1.3143383,1.39822 1.3568872,1.3568872 0 0 0 1.398155,-1.3144 1.3568872,1.3568872 0 0 0 -1.314331,-1.39821 z m 6.021591,0.18618 a 1.3568872,1.3568872 0 0 0 -1.39822,1.31433 1.3568872,1.3568872 0 0 0 1.314345,1.39823 1.3568872,1.3568872 0 0 0 1.398225,-1.31433 1.3568872,1.3568872 0 0 0 -1.314332,-1.3982 z m -12.1934509,4.47386 a 1.3568872,1.3568872 0 0 0 -1.3977311,1.31441 1.3568872,1.3568872 0 0 0 1.3139076,1.39819 1.3568872,1.3568872 0 0 0 1.3982251,-1.31433 1.3568872,1.3568872 0 0 0 -1.3143314,-1.39821 z m 6.0220222,0.1862 a 1.3568872,1.3568872 0 0 0 -1.398151,1.3144 1.3568872,1.3568872 0 0 0 1.3143384,1.39822 1.3568872,1.3568872 0 0 0 1.3982243,-1.31433 1.3568872,1.3568872 0 0 0 -1.3143317,-1.3982 z m 6.0215887,0.18617 a 1.3568872,1.3568872 0 0 0 -1.398224,1.31433 1.3568872,1.3568872 0 0 0 1.314338,1.39822 1.3568872,1.3568872 0 0 0 1.398226,-1.31433 1.3568872,1.3568872 0 0 0 -1.314332,-1.39821 z m -12.1934598,4.4743 a 1.3568872,1.3568872 0 0 0 -1.3977311,1.31441 1.3568872,1.3568872 0 0 0 1.3139145,1.39819 1.3568872,1.3568872 0 0 0 1.3982244,-1.31432 1.3568872,1.3568872 0 0 0 -1.3143384,-1.39822 z m 6.0220153,0.18619 a 1.3568872,1.3568872 0 0 0 -1.3982237,1.31433 1.3568872,1.3568872 0 0 0 1.3143387,1.3982 1.3568872,1.3568872 0 0 0 1.3982205,-1.31432 1.3568872,1.3568872 0 0 0 -1.3143388,-1.39822 z m 6.0216025,0.18619 a 1.3568872,1.3568872 0 0 0 -1.398225,1.31432 1.3568872,1.3568872 0 0 0 1.314332,1.39822 1.3568872,1.3568872 0 0 0 1.398225,-1.31433 1.3568872,1.3568872 0 0 0 -1.314339,-1.39821 z"
                 style="opacity:1;fill:#ffffff;fill-opacity:1;stroke:none;stroke-width:1.56446338;stroke-miterlimit:4;stroke-dasharray:none;stroke-dashoffset:0;stroke-opacity:1" />
              <rect
                 rx="0"
                 ry="0"
                 y="144.88026"
                 x="2.2438397"
                 height="2.0875061"
                 width="15.36274"
                 id="rect4707"
                 style="opacity:1;fill:#e18a3a;fill-opacity:1;stroke:none;stroke-width:1.56446338;stroke-miterlimit:4;stroke-dasharray:none;stroke-dashoffset:0;stroke-opacity:1" />
              <rect
                 style="opacity:1;fill:#e18a3a;fill-opacity:1;stroke:none;stroke-width:1.56446338;stroke-miterlimit:4;stroke-dasharray:none;stroke-dashoffset:0;stroke-opacity:1"
                 id="rect4709"
                 width="15.36274"
                 height="2.0875061"
                 x="2.2438397"
                 y="164.98833"
                 ry="0"
                 rx="0" />
              <rect
                 rx="7.8930597"
                 style="opacity:1;fill:none;fill-opacity:1;stroke:#ffffff;stroke-width:1.56446469;stroke-miterlimit:4;stroke-dasharray:none;stroke-dashoffset:0;stroke-opacity:1"
                 id="rect4724"
                 width="16.007483"
                 height="66.607033"
                 x="3.3946068"
                 y="123.45078"
                 ry="7.8930597"
                 transform="matrix(0.99993613,0.01130226,-0.00939313,0.99995588,0,0)" />
            </g>
          </g>
          <path
             inkscape:connector-curvature="0"
             id="path4773"
             transform="matrix(0.26458333,0,0,0.26458333,0,229.26665)"
             d="m 104.2793,-242.9082 a 1.1445329,1.1445329 0 0 0 -1.08594,1.08593 1.1445329,1.1445329 0 0 0 1.08398,1.20118 1.1445329,1.1445329 0 0 0 1.20118,-1.08594 1.1445329,1.1445329 0 0 0 -1.08399,-1.20117 1.1445329,1.1445329 0 0 0 -0.11523,0 z m 6.69726,0 a 1.1445329,1.1445329 0 0 0 -1.08398,1.20117 1.1445329,1.1445329 0 0 0 1.20117,1.08594 1.1445329,1.1445329 0 0 0 1.08398,-1.20118 1.1445329,1.1445329 0 0 0 -1.20117,-1.08593 z m -12.710935,3.41211 a 1.1445329,1.1445329 0 0 0 -1.085937,1.08593 1.1445329,1.1445329 0 0 0 1.083984,1.20118 1.1445329,1.1445329 0 0 0 1.201172,-1.08594 1.1445329,1.1445329 0 0 0 -1.083985,-1.20117 1.1445329,1.1445329 0 0 0 -0.115234,0 z m 18.726565,0 a 1.1445329,1.1445329 0 0 0 -1.08594,1.20117 1.1445329,1.1445329 0 0 0 1.20117,1.08594 1.1445329,1.1445329 0 0 0 1.08399,-1.20118 1.1445329,1.1445329 0 0 0 -1.19922,-1.08593 z m -24.488284,3.6914 a 1.1445329,1.1445329 0 0 0 -1.085937,1.08399 1.1445329,1.1445329 0 0 0 1.083984,1.20117 1.1445329,1.1445329 0 0 0 1.201172,-1.08399 1.1445329,1.1445329 0 0 0 -1.085937,-1.20117 1.1445329,1.1445329 0 0 0 -0.113282,0 z m 30.250004,0 a 1.1445329,1.1445329 0 0 0 -1.08594,1.20117 1.1445329,1.1445329 0 0 0 1.20117,1.08399 1.1445329,1.1445329 0 0 0 1.08398,-1.20117 1.1445329,1.1445329 0 0 0 -1.19921,-1.08399 z m -18.85547,0.44531 a 1.1445329,1.1445329 0 0 0 -1.08594,1.08594 1.1445329,1.1445329 0 0 0 1.08398,1.20117 1.1445329,1.1445329 0 0 0 1.20118,-1.08593 1.1445329,1.1445329 0 0 0 -1.08594,-1.20118 1.1445329,1.1445329 0 0 0 -0.11328,0 z m 7.46094,0 a 1.1445329,1.1445329 0 0 0 -1.08594,1.20118 1.1445329,1.1445329 0 0 0 1.20117,1.08593 1.1445329,1.1445329 0 0 0 1.08398,-1.20117 1.1445329,1.1445329 0 0 0 -1.19921,-1.08594 z m -13.474614,3.41407 a 1.1445329,1.1445329 0 0 0 -1.085938,1.08593 1.1445329,1.1445329 0 0 0 1.083984,1.20118 1.1445329,1.1445329 0 0 0 1.201172,-1.08594 1.1445329,1.1445329 0 0 0 -1.085937,-1.20117 1.1445329,1.1445329 0 0 0 -0.113281,0 z m 19.488284,0 a 1.1445329,1.1445329 0 0 0 -1.08594,1.20117 1.1445329,1.1445329 0 0 0 1.20117,1.08594 1.1445329,1.1445329 0 0 0 1.08594,-1.20118 1.1445329,1.1445329 0 0 0 -1.20117,-1.08593 z m -25.250003,3.6914 a 1.1445329,1.1445329 0 0 0 -1.087891,1.08399 1.1445329,1.1445329 0 0 0 1.085938,1.20117 1.1445329,1.1445329 0 0 0 1.201172,-1.08398 1.1445329,1.1445329 0 0 0 -1.085938,-1.20118 1.1445329,1.1445329 0 0 0 -0.113281,0 z m 31.011723,0 a 1.1445329,1.1445329 0 0 0 -1.08594,1.20118 1.1445329,1.1445329 0 0 0 1.20117,1.08398 1.1445329,1.1445329 0 0 0 1.08594,-1.20117 1.1445329,1.1445329 0 0 0 -1.20117,-1.08399 z m -19.61719,0.44336 a 1.1445329,1.1445329 0 0 0 -1.08789,1.08594 1.1445329,1.1445329 0 0 0 1.08593,1.20117 1.1445329,1.1445329 0 0 0 1.20118,-1.08594 1.1445329,1.1445329 0 0 0 -1.08594,-1.20117 1.1445329,1.1445329 0 0 0 -0.11328,0 z m 8.22265,0 a 1.1445329,1.1445329 0 0 0 -1.08593,1.20117 1.1445329,1.1445329 0 0 0 1.20117,1.08594 1.1445329,1.1445329 0 0 0 1.08594,-1.20117 1.1445329,1.1445329 0 0 0 -1.20118,-1.08594 z m -14.236324,3.41407 a 1.1445329,1.1445329 0 0 0 -1.08789,1.08593 1.1445329,1.1445329 0 0 0 1.085937,1.20117 1.1445329,1.1445329 0 0 0 1.201172,-1.08593 1.1445329,1.1445329 0 0 0 -1.085937,-1.20117 1.1445329,1.1445329 0 0 0 -0.113282,0 z m 20.250004,0 a 1.1445329,1.1445329 0 0 0 -1.08594,1.20117 1.1445329,1.1445329 0 0 0 1.20117,1.08593 1.1445329,1.1445329 0 0 0 1.08594,-1.20117 1.1445329,1.1445329 0 0 0 -1.20117,-1.08593 z m -26.013676,3.6914 a 1.1445329,1.1445329 0 0 0 -1.085937,1.08399 1.1445329,1.1445329 0 0 0 1.085937,1.20117 1.1445329,1.1445329 0 0 0 1.201172,-1.08399 1.1445329,1.1445329 0 0 0 -1.085937,-1.20117 1.1445329,1.1445329 0 0 0 -0.115235,0 z m 31.775386,0 a 1.1445329,1.1445329 0 0 0 -1.08593,1.20117 1.1445329,1.1445329 0 0 0 1.20117,1.08399 1.1445329,1.1445329 0 0 0 1.08594,-1.20117 1.1445329,1.1445329 0 0 0 -1.20118,-1.08399 z m -20.38085,0.44336 a 1.1445329,1.1445329 0 0 0 -1.08594,1.08594 1.1445329,1.1445329 0 0 0 1.08594,1.20117 1.1445329,1.1445329 0 0 0 1.20117,-1.08594 1.1445329,1.1445329 0 0 0 -1.08594,-1.20117 1.1445329,1.1445329 0 0 0 -0.11523,0 z m 8.98632,0 a 1.1445329,1.1445329 0 0 0 -1.08593,1.20117 1.1445329,1.1445329 0 0 0 1.20117,1.08594 1.1445329,1.1445329 0 0 0 1.08594,-1.20117 1.1445329,1.1445329 0 0 0 -1.20118,-1.08594 z m -14.999996,3.41406 a 1.1445329,1.1445329 0 0 0 -1.085938,1.08594 1.1445329,1.1445329 0 0 0 1.085938,1.20117 1.1445329,1.1445329 0 0 0 1.201172,-1.08593 1.1445329,1.1445329 0 0 0 -1.085938,-1.20118 1.1445329,1.1445329 0 0 0 -0.115234,0 z m 21.013676,0 a 1.1445329,1.1445329 0 0 0 -1.08399,1.20118 1.1445329,1.1445329 0 0 0 1.19922,1.08593 1.1445329,1.1445329 0 0 0 1.08594,-1.20117 1.1445329,1.1445329 0 0 0 -1.20117,-1.08594 z m -26.775395,3.69141 a 1.1445329,1.1445329 0 0 0 -1.085937,1.08594 1.1445329,1.1445329 0 0 0 1.085937,1.19922 1.1445329,1.1445329 0 0 0 1.199219,-1.08399 1.1445329,1.1445329 0 0 0 -1.083985,-1.20117 1.1445329,1.1445329 0 0 0 -0.115234,0 z m 32.537105,0 a 1.1445329,1.1445329 0 0 0 -1.08398,1.20117 1.1445329,1.1445329 0 0 0 1.19922,1.08399 1.1445329,1.1445329 0 0 0 1.08594,-1.19922 1.1445329,1.1445329 0 0 0 -1.20118,-1.08594 z m -21.14257,0.44531 a 1.1445329,1.1445329 0 0 0 -1.08594,1.08594 1.1445329,1.1445329 0 0 0 1.08594,1.20117 1.1445329,1.1445329 0 0 0 1.19921,-1.08594 1.1445329,1.1445329 0 0 0 -1.08398,-1.20117 1.1445329,1.1445329 0 0 0 -0.11523,0 z m 9.74804,0 a 1.1445329,1.1445329 0 0 0 -1.08398,1.20117 1.1445329,1.1445329 0 0 0 1.20117,1.08594 1.1445329,1.1445329 0 0 0 1.08398,-1.20117 1.1445329,1.1445329 0 0 0 -1.20117,-1.08594 z m -15.761716,3.41211 a 1.1445329,1.1445329 0 0 0 -1.085937,1.08594 1.1445329,1.1445329 0 0 0 1.085937,1.20117 1.1445329,1.1445329 0 0 0 1.199219,-1.08594 1.1445329,1.1445329 0 0 0 -1.083984,-1.20117 1.1445329,1.1445329 0 0 0 -0.115235,0 z m 21.775386,0 a 1.1445329,1.1445329 0 0 0 -1.08398,1.20117 1.1445329,1.1445329 0 0 0 1.20117,1.08594 1.1445329,1.1445329 0 0 0 1.08399,-1.20117 1.1445329,1.1445329 0 0 0 -1.20118,-1.08594 z m -27.537104,3.69141 a 1.1445329,1.1445329 0 0 0 -1.085938,1.08594 1.1445329,1.1445329 0 0 0 1.083984,1.20117 1.1445329,1.1445329 0 0 0 1.201172,-1.08594 1.1445329,1.1445329 0 0 0 -1.083984,-1.20117 1.1445329,1.1445329 0 0 0 -0.115234,0 z m 33.298824,0 a 1.1445329,1.1445329 0 0 0 -1.08398,1.20117 1.1445329,1.1445329 0 0 0 1.20117,1.08594 1.1445329,1.1445329 0 0 0 1.08399,-1.20117 1.1445329,1.1445329 0 0 0 -1.20118,-1.08594 z"
             style="opacity:1;fill:#ffffff;fill-opacity:1;stroke:#ffffff;stroke-width:0.8662467;stroke-miterlimit:4;stroke-dasharray:none;stroke-dashoffset:0;stroke-opacity:1" />
          <path
             inkscape:connector-curvature="0"
             id="path4944"
             d="m 29.393041,210.92565 a 0.30282433,0.30282433 0 0 0 0.28732,-0.2868 0.30282433,0.30282433 0 0 0 -0.28681,-0.31782 0.30282433,0.30282433 0 0 0 -0.31781,0.28733 0.30282433,0.30282433 0 0 0 0.28681,0.31729 0.30282433,0.30282433 0 0 0 0.0305,0 z m -1.77199,0 a 0.30282433,0.30282433 0 0 0 0.28681,-0.31729 0.30282433,0.30282433 0 0 0 -0.31781,-0.28733 0.30282433,0.30282433 0 0 0 -0.28681,0.31782 0.30282433,0.30282433 0 0 0 0.31781,0.2868 z m 3.3631,-0.90227 a 0.30282433,0.30282433 0 0 0 0.28732,-0.28732 0.30282433,0.30282433 0 0 0 -0.2868,-0.31781 0.30282433,0.30282433 0 0 0 -0.31781,0.28732 0.30282433,0.30282433 0 0 0 0.28681,0.31781 0.30282433,0.30282433 0 0 0 0.0305,0 z m -4.95473,0 a 0.30282433,0.30282433 0 0 0 0.28732,-0.31781 0.30282433,0.30282433 0 0 0 -0.31781,-0.28732 0.30282433,0.30282433 0 0 0 -0.28681,0.31781 0.30282433,0.30282433 0 0 0 0.3173,0.28732 z m 6.47919,-0.97669 a 0.30282433,0.30282433 0 0 0 0.28732,-0.28732 0.30282433,0.30282433 0 0 0 -0.2868,-0.31781 0.30282433,0.30282433 0 0 0 -0.31781,0.28732 0.30282433,0.30282433 0 0 0 0.28732,0.31781 0.30282433,0.30282433 0 0 0 0.03,0 z m -8.00365,0 a 0.30282433,0.30282433 0 0 0 0.28732,-0.31781 0.30282433,0.30282433 0 0 0 -0.31781,-0.28732 0.30282433,0.30282433 0 0 0 -0.2868,0.31781 0.30282433,0.30282433 0 0 0 0.31729,0.28732 z m 4.98885,-0.11834 a 0.30282433,0.30282433 0 0 0 0.28732,-0.2868 0.30282433,0.30282433 0 0 0 -0.28681,-0.31781 0.30282433,0.30282433 0 0 0 -0.31781,0.2868 0.30282433,0.30282433 0 0 0 0.28732,0.31781 0.30282433,0.30282433 0 0 0 0.03,0 z m -1.97405,0 a 0.30282433,0.30282433 0 0 0 0.28733,-0.31781 0.30282433,0.30282433 0 0 0 -0.31781,-0.2868 0.30282433,0.30282433 0 0 0 -0.28681,0.31781 0.30282433,0.30282433 0 0 0 0.31729,0.2868 z m 3.56516,-0.90278 a 0.30282433,0.30282433 0 0 0 0.28732,-0.28732 0.30282433,0.30282433 0 0 0 -0.2868,-0.31781 0.30282433,0.30282433 0 0 0 -0.31781,0.28732 0.30282433,0.30282433 0 0 0 0.28732,0.31729 0.30282433,0.30282433 0 0 0 0.03,5.2e-4 z m -5.18624,0 a 0.30282433,0.30282433 0 0 0 0.03,-5.2e-4 0.30282433,0.30282433 0 0 0 0.28732,-0.31729 0.30282433,0.30282433 0 0 0 -0.31781,-0.28732 0.30282433,0.30282433 0 0 0 -0.28732,0.31781 0.30282433,0.30282433 0 0 0 0.28784,0.28732 z m 6.7107,-0.97669 a 0.30282433,0.30282433 0 0 0 0.28784,-0.28732 0.30282433,0.30282433 0 0 0 -0.28733,-0.31781 0.30282433,0.30282433 0 0 0 -0.31781,0.28732 0.30282433,0.30282433 0 0 0 0.28733,0.31781 0.30282433,0.30282433 0 0 0 0.03,0 z m -8.20519,0 a 0.30282433,0.30282433 0 0 0 0.28732,-0.31781 0.30282433,0.30282433 0 0 0 -0.3178,-0.28732 0.30282433,0.30282433 0 0 0 -0.28733,0.31781 0.30282433,0.30282433 0 0 0 0.31781,0.28732 z m 5.19038,-0.11782 a 0.30282433,0.30282433 0 0 0 0.28784,-0.2868 0.30282433,0.30282433 0 0 0 -0.28732,-0.31781 0.30282433,0.30282433 0 0 0 -0.31781,0.2868 0.30282433,0.30282433 0 0 0 0.28732,0.31781 0.30282433,0.30282433 0 0 0 0.03,0 z m -2.17557,0 a 0.30282433,0.30282433 0 0 0 0.28732,-0.31781 0.30282433,0.30282433 0 0 0 -0.31781,-0.2868 0.30282433,0.30282433 0 0 0 -0.28732,0.31781 0.30282433,0.30282433 0 0 0 0.31781,0.2868 z m 3.76669,-0.9033 a 0.30282433,0.30282433 0 0 0 0.28784,-0.28681 0.30282433,0.30282433 0 0 0 -0.28732,-0.31781 0.30282433,0.30282433 0 0 0 -0.31781,0.28732 0.30282433,0.30282433 0 0 0 0.28732,0.3173 0.30282433,0.30282433 0 0 0 0.03,0 z m -5.35781,0 a 0.30282433,0.30282433 0 0 0 0.28732,-0.3173 0.30282433,0.30282433 0 0 0 -0.31781,-0.28732 0.30282433,0.30282433 0 0 0 -0.28732,0.31781 0.30282433,0.30282433 0 0 0 0.31781,0.28681 z m 6.88278,-0.97617 a 0.30282433,0.30282433 0 0 0 0.28732,-0.28732 0.30282433,0.30282433 0 0 0 -0.28732,-0.31781 0.30282433,0.30282433 0 0 0 -0.31781,0.28732 0.30282433,0.30282433 0 0 0 0.28732,0.31781 0.30282433,0.30282433 0 0 0 0.0305,0 z m -8.40723,0 a 0.30282433,0.30282433 0 0 0 0.28732,-0.31781 0.30282433,0.30282433 0 0 0 -0.31781,-0.28732 0.30282433,0.30282433 0 0 0 -0.28733,0.31781 0.30282433,0.30282433 0 0 0 0.31782,0.28732 z m 5.39243,-0.11782 a 0.30282433,0.30282433 0 0 0 0.28732,-0.28681 0.30282433,0.30282433 0 0 0 -0.28732,-0.31781 0.30282433,0.30282433 0 0 0 -0.31781,0.28681 0.30282433,0.30282433 0 0 0 0.28732,0.31781 0.30282433,0.30282433 0 0 0 0.0305,0 z m -2.37763,0 a 0.30282433,0.30282433 0 0 0 0.28732,-0.31781 0.30282433,0.30282433 0 0 0 -0.31781,-0.28681 0.30282433,0.30282433 0 0 0 -0.28732,0.31781 0.30282433,0.30282433 0 0 0 0.31781,0.28681 z m 3.96875,-0.90331 a 0.30282433,0.30282433 0 0 0 0.28732,-0.2868 0.30282433,0.30282433 0 0 0 -0.28732,-0.31781 0.30282433,0.30282433 0 0 0 -0.31781,0.2868 0.30282433,0.30282433 0 0 0 0.28732,0.31781 0.30282433,0.30282433 0 0 0 0.0305,0 z m -5.55987,0 a 0.30282433,0.30282433 0 0 0 0.28681,-0.31781 0.30282433,0.30282433 0 0 0 -0.3173,-0.2868 0.30282433,0.30282433 0 0 0 -0.28732,0.31781 0.30282433,0.30282433 0 0 0 0.31781,0.2868 z m 7.08432,-0.97617 a 0.30282433,0.30282433 0 0 0 0.28732,-0.28732 0.30282433,0.30282433 0 0 0 -0.28732,-0.31781 0.30282433,0.30282433 0 0 0 -0.31729,0.28732 0.30282433,0.30282433 0 0 0 0.2868,0.31781 0.30282433,0.30282433 0 0 0 0.0305,0 z m -8.60877,0 a 0.30282433,0.30282433 0 0 0 0.2868,-0.31781 0.30282433,0.30282433 0 0 0 -0.31729,-0.28732 0.30282433,0.30282433 0 0 0 -0.28733,0.31781 0.30282433,0.30282433 0 0 0 0.31782,0.28732 z m 5.59397,-0.11833 a 0.30282433,0.30282433 0 0 0 0.28732,-0.28733 0.30282433,0.30282433 0 0 0 -0.28732,-0.31729 0.30282433,0.30282433 0 0 0 -0.31729,0.28681 0.30282433,0.30282433 0 0 0 0.2868,0.31781 0.30282433,0.30282433 0 0 0 0.0305,0 z m -2.57917,0 a 0.30282433,0.30282433 0 0 0 0.2868,-0.31781 0.30282433,0.30282433 0 0 0 -0.31781,-0.28681 0.30282433,0.30282433 0 0 0 -0.2868,0.31729 0.30282433,0.30282433 0 0 0 0.31781,0.28733 z m 4.17029,-0.90279 a 0.30282433,0.30282433 0 0 0 0.28732,-0.28681 0.30282433,0.30282433 0 0 0 -0.28732,-0.31781 0.30282433,0.30282433 0 0 0 -0.3173,0.28681 0.30282433,0.30282433 0 0 0 0.28681,0.31781 0.30282433,0.30282433 0 0 0 0.0305,0 z m -5.76141,0 a 0.30282433,0.30282433 0 0 0 0.28681,-0.31781 0.30282433,0.30282433 0 0 0 -0.31781,-0.28681 0.30282433,0.30282433 0 0 0 -0.28681,0.31781 0.30282433,0.30282433 0 0 0 0.31781,0.28681 z m 7.28586,-0.97617 a 0.30282433,0.30282433 0 0 0 0.28732,-0.28732 0.30282433,0.30282433 0 0 0 -0.2868,-0.31781 0.30282433,0.30282433 0 0 0 -0.31781,0.28732 0.30282433,0.30282433 0 0 0 0.2868,0.31781 0.30282433,0.30282433 0 0 0 0.0305,0 z m -8.81031,0 a 0.30282433,0.30282433 0 0 0 0.2868,-0.31781 0.30282433,0.30282433 0 0 0 -0.31781,-0.28732 0.30282433,0.30282433 0 0 0 -0.2868,0.31781 0.30282433,0.30282433 0 0 0 0.31781,0.28732 z"
             style="opacity:1;fill:#ffffff;fill-opacity:1;stroke:#ffffff;stroke-width:0.22919443;stroke-miterlimit:4;stroke-dasharray:none;stroke-dashoffset:0;stroke-opacity:1" />
        </g>
        <g
           id="g5001"
           transform="rotate(90,28.738188,188.11178)">
          <g
             id="g4995">
            <g
               transform="matrix(0.84158732,-0.00486031,0.00486031,0.84158732,19.623482,56.254754)"
               id="g4993"
               style="stroke-width:1.56446338">
              <rect
                 style="opacity:1;fill:#e2954f;fill-opacity:1;stroke:#2d2d2d;stroke-width:1.56446338;stroke-miterlimit:4;stroke-dasharray:none;stroke-dashoffset:0;stroke-opacity:1"
                 id="rect4983"
                 width="17.93376"
                 height="67.974724"
                 x="2.5740137"
                 y="122.63605"
                 ry="8.0551357"
                 transform="matrix(0.999947,0.01029535,-0.01031182,0.99994683,0,0)"
                 rx="8.0551357" />
              <path
                 style="opacity:1;fill:#ffffff;fill-opacity:1;stroke:none;stroke-width:1.56446338;stroke-miterlimit:4;stroke-dasharray:none;stroke-dashoffset:0;stroke-opacity:1"
                 d="m 4.0949395,149.72149 a 1.3568872,1.3568872 0 0 0 -1.3977268,1.31441 1.3568872,1.3568872 0 0 0 1.3139146,1.3982 1.3568872,1.3568872 0 0 0 1.3982243,-1.31433 1.3568872,1.3568872 0 0 0 -1.3143387,-1.39821 z m 6.0220195,0.18619 a 1.3568872,1.3568872 0 0 0 -1.3982243,1.31433 1.3568872,1.3568872 0 0 0 1.3143383,1.39822 1.3568872,1.3568872 0 0 0 1.398155,-1.3144 1.3568872,1.3568872 0 0 0 -1.314331,-1.39821 z m 6.021591,0.18618 a 1.3568872,1.3568872 0 0 0 -1.39822,1.31433 1.3568872,1.3568872 0 0 0 1.314345,1.39823 1.3568872,1.3568872 0 0 0 1.398225,-1.31433 1.3568872,1.3568872 0 0 0 -1.314332,-1.3982 z m -12.1934509,4.47386 a 1.3568872,1.3568872 0 0 0 -1.3977311,1.31441 1.3568872,1.3568872 0 0 0 1.3139076,1.39819 1.3568872,1.3568872 0 0 0 1.3982251,-1.31433 1.3568872,1.3568872 0 0 0 -1.3143314,-1.39821 z m 6.0220222,0.1862 a 1.3568872,1.3568872 0 0 0 -1.398151,1.3144 1.3568872,1.3568872 0 0 0 1.3143384,1.39822 1.3568872,1.3568872 0 0 0 1.3982243,-1.31433 1.3568872,1.3568872 0 0 0 -1.3143317,-1.3982 z m 6.0215887,0.18617 a 1.3568872,1.3568872 0 0 0 -1.398224,1.31433 1.3568872,1.3568872 0 0 0 1.314338,1.39822 1.3568872,1.3568872 0 0 0 1.398226,-1.31433 1.3568872,1.3568872 0 0 0 -1.314332,-1.39821 z m -12.1934598,4.4743 a 1.3568872,1.3568872 0 0 0 -1.3977311,1.31441 1.3568872,1.3568872 0 0 0 1.3139145,1.39819 1.3568872,1.3568872 0 0 0 1.3982244,-1.31432 1.3568872,1.3568872 0 0 0 -1.3143384,-1.39822 z m 6.0220153,0.18619 a 1.3568872,1.3568872 0 0 0 -1.3982237,1.31433 1.3568872,1.3568872 0 0 0 1.3143387,1.3982 1.3568872,1.3568872 0 0 0 1.3982205,-1.31432 1.3568872,1.3568872 0 0 0 -1.3143388,-1.39822 z m 6.0216025,0.18619 a 1.3568872,1.3568872 0 0 0 -1.398225,1.31432 1.3568872,1.3568872 0 0 0 1.314332,1.39822 1.3568872,1.3568872 0 0 0 1.398225,-1.31433 1.3568872,1.3568872 0 0 0 -1.314339,-1.39821 z"
                 id="path4985"
                 inkscape:connector-curvature="0" />
              <rect
                 style="opacity:1;fill:#e18a3a;fill-opacity:1;stroke:none;stroke-width:1.56446338;stroke-miterlimit:4;stroke-dasharray:none;stroke-dashoffset:0;stroke-opacity:1"
                 id="rect4987"
                 width="15.36274"
                 height="2.0875061"
                 x="2.2438397"
                 y="144.88026"
                 ry="0"
                 rx="0" />
              <rect
                 rx="0"
                 ry="0"
                 y="164.98833"
                 x="2.2438397"
                 height="2.0875061"
                 width="15.36274"
                 id="rect4989"
                 style="opacity:1;fill:#e18a3a;fill-opacity:1;stroke:none;stroke-width:1.56446338;stroke-miterlimit:4;stroke-dasharray:none;stroke-dashoffset:0;stroke-opacity:1" />
              <rect
                 transform="matrix(0.99993613,0.01130226,-0.00939313,0.99995588,0,0)"
                 ry="7.8930597"
                 y="123.45078"
                 x="3.3946068"
                 height="66.607033"
                 width="16.007483"
                 id="rect4991"
                 style="opacity:1;fill:none;fill-opacity:1;stroke:#ffffff;stroke-width:1.56446469;stroke-miterlimit:4;stroke-dasharray:none;stroke-dashoffset:0;stroke-opacity:1"
                 rx="7.8930597" />
            </g>
          </g>
          <path
             style="opacity:1;fill:#ffffff;fill-opacity:1;stroke:#ffffff;stroke-width:0.8662467;stroke-miterlimit:4;stroke-dasharray:none;stroke-dashoffset:0;stroke-opacity:1"
             d="m 104.2793,-242.9082 a 1.1445329,1.1445329 0 0 0 -1.08594,1.08593 1.1445329,1.1445329 0 0 0 1.08398,1.20118 1.1445329,1.1445329 0 0 0 1.20118,-1.08594 1.1445329,1.1445329 0 0 0 -1.08399,-1.20117 1.1445329,1.1445329 0 0 0 -0.11523,0 z m 6.69726,0 a 1.1445329,1.1445329 0 0 0 -1.08398,1.20117 1.1445329,1.1445329 0 0 0 1.20117,1.08594 1.1445329,1.1445329 0 0 0 1.08398,-1.20118 1.1445329,1.1445329 0 0 0 -1.20117,-1.08593 z m -12.710935,3.41211 a 1.1445329,1.1445329 0 0 0 -1.085937,1.08593 1.1445329,1.1445329 0 0 0 1.083984,1.20118 1.1445329,1.1445329 0 0 0 1.201172,-1.08594 1.1445329,1.1445329 0 0 0 -1.083985,-1.20117 1.1445329,1.1445329 0 0 0 -0.115234,0 z m 18.726565,0 a 1.1445329,1.1445329 0 0 0 -1.08594,1.20117 1.1445329,1.1445329 0 0 0 1.20117,1.08594 1.1445329,1.1445329 0 0 0 1.08399,-1.20118 1.1445329,1.1445329 0 0 0 -1.19922,-1.08593 z m -24.488284,3.6914 a 1.1445329,1.1445329 0 0 0 -1.085937,1.08399 1.1445329,1.1445329 0 0 0 1.083984,1.20117 1.1445329,1.1445329 0 0 0 1.201172,-1.08399 1.1445329,1.1445329 0 0 0 -1.085937,-1.20117 1.1445329,1.1445329 0 0 0 -0.113282,0 z m 30.250004,0 a 1.1445329,1.1445329 0 0 0 -1.08594,1.20117 1.1445329,1.1445329 0 0 0 1.20117,1.08399 1.1445329,1.1445329 0 0 0 1.08398,-1.20117 1.1445329,1.1445329 0 0 0 -1.19921,-1.08399 z m -18.85547,0.44531 a 1.1445329,1.1445329 0 0 0 -1.08594,1.08594 1.1445329,1.1445329 0 0 0 1.08398,1.20117 1.1445329,1.1445329 0 0 0 1.20118,-1.08593 1.1445329,1.1445329 0 0 0 -1.08594,-1.20118 1.1445329,1.1445329 0 0 0 -0.11328,0 z m 7.46094,0 a 1.1445329,1.1445329 0 0 0 -1.08594,1.20118 1.1445329,1.1445329 0 0 0 1.20117,1.08593 1.1445329,1.1445329 0 0 0 1.08398,-1.20117 1.1445329,1.1445329 0 0 0 -1.19921,-1.08594 z m -13.474614,3.41407 a 1.1445329,1.1445329 0 0 0 -1.085938,1.08593 1.1445329,1.1445329 0 0 0 1.083984,1.20118 1.1445329,1.1445329 0 0 0 1.201172,-1.08594 1.1445329,1.1445329 0 0 0 -1.085937,-1.20117 1.1445329,1.1445329 0 0 0 -0.113281,0 z m 19.488284,0 a 1.1445329,1.1445329 0 0 0 -1.08594,1.20117 1.1445329,1.1445329 0 0 0 1.20117,1.08594 1.1445329,1.1445329 0 0 0 1.08594,-1.20118 1.1445329,1.1445329 0 0 0 -1.20117,-1.08593 z m -25.250003,3.6914 a 1.1445329,1.1445329 0 0 0 -1.087891,1.08399 1.1445329,1.1445329 0 0 0 1.085938,1.20117 1.1445329,1.1445329 0 0 0 1.201172,-1.08398 1.1445329,1.1445329 0 0 0 -1.085938,-1.20118 1.1445329,1.1445329 0 0 0 -0.113281,0 z m 31.011723,0 a 1.1445329,1.1445329 0 0 0 -1.08594,1.20118 1.1445329,1.1445329 0 0 0 1.20117,1.08398 1.1445329,1.1445329 0 0 0 1.08594,-1.20117 1.1445329,1.1445329 0 0 0 -1.20117,-1.08399 z m -19.61719,0.44336 a 1.1445329,1.1445329 0 0 0 -1.08789,1.08594 1.1445329,1.1445329 0 0 0 1.08593,1.20117 1.1445329,1.1445329 0 0 0 1.20118,-1.08594 1.1445329,1.1445329 0 0 0 -1.08594,-1.20117 1.1445329,1.1445329 0 0 0 -0.11328,0 z m 8.22265,0 a 1.1445329,1.1445329 0 0 0 -1.08593,1.20117 1.1445329,1.1445329 0 0 0 1.20117,1.08594 1.1445329,1.1445329 0 0 0 1.08594,-1.20117 1.1445329,1.1445329 0 0 0 -1.20118,-1.08594 z m -14.236324,3.41407 a 1.1445329,1.1445329 0 0 0 -1.08789,1.08593 1.1445329,1.1445329 0 0 0 1.085937,1.20117 1.1445329,1.1445329 0 0 0 1.201172,-1.08593 1.1445329,1.1445329 0 0 0 -1.085937,-1.20117 1.1445329,1.1445329 0 0 0 -0.113282,0 z m 20.250004,0 a 1.1445329,1.1445329 0 0 0 -1.08594,1.20117 1.1445329,1.1445329 0 0 0 1.20117,1.08593 1.1445329,1.1445329 0 0 0 1.08594,-1.20117 1.1445329,1.1445329 0 0 0 -1.20117,-1.08593 z m -26.013676,3.6914 a 1.1445329,1.1445329 0 0 0 -1.085937,1.08399 1.1445329,1.1445329 0 0 0 1.085937,1.20117 1.1445329,1.1445329 0 0 0 1.201172,-1.08399 1.1445329,1.1445329 0 0 0 -1.085937,-1.20117 1.1445329,1.1445329 0 0 0 -0.115235,0 z m 31.775386,0 a 1.1445329,1.1445329 0 0 0 -1.08593,1.20117 1.1445329,1.1445329 0 0 0 1.20117,1.08399 1.1445329,1.1445329 0 0 0 1.08594,-1.20117 1.1445329,1.1445329 0 0 0 -1.20118,-1.08399 z m -20.38085,0.44336 a 1.1445329,1.1445329 0 0 0 -1.08594,1.08594 1.1445329,1.1445329 0 0 0 1.08594,1.20117 1.1445329,1.1445329 0 0 0 1.20117,-1.08594 1.1445329,1.1445329 0 0 0 -1.08594,-1.20117 1.1445329,1.1445329 0 0 0 -0.11523,0 z m 8.98632,0 a 1.1445329,1.1445329 0 0 0 -1.08593,1.20117 1.1445329,1.1445329 0 0 0 1.20117,1.08594 1.1445329,1.1445329 0 0 0 1.08594,-1.20117 1.1445329,1.1445329 0 0 0 -1.20118,-1.08594 z m -14.999996,3.41406 a 1.1445329,1.1445329 0 0 0 -1.085938,1.08594 1.1445329,1.1445329 0 0 0 1.085938,1.20117 1.1445329,1.1445329 0 0 0 1.201172,-1.08593 1.1445329,1.1445329 0 0 0 -1.085938,-1.20118 1.1445329,1.1445329 0 0 0 -0.115234,0 z m 21.013676,0 a 1.1445329,1.1445329 0 0 0 -1.08399,1.20118 1.1445329,1.1445329 0 0 0 1.19922,1.08593 1.1445329,1.1445329 0 0 0 1.08594,-1.20117 1.1445329,1.1445329 0 0 0 -1.20117,-1.08594 z m -26.775395,3.69141 a 1.1445329,1.1445329 0 0 0 -1.085937,1.08594 1.1445329,1.1445329 0 0 0 1.085937,1.19922 1.1445329,1.1445329 0 0 0 1.199219,-1.08399 1.1445329,1.1445329 0 0 0 -1.083985,-1.20117 1.1445329,1.1445329 0 0 0 -0.115234,0 z m 32.537105,0 a 1.1445329,1.1445329 0 0 0 -1.08398,1.20117 1.1445329,1.1445329 0 0 0 1.19922,1.08399 1.1445329,1.1445329 0 0 0 1.08594,-1.19922 1.1445329,1.1445329 0 0 0 -1.20118,-1.08594 z m -21.14257,0.44531 a 1.1445329,1.1445329 0 0 0 -1.08594,1.08594 1.1445329,1.1445329 0 0 0 1.08594,1.20117 1.1445329,1.1445329 0 0 0 1.19921,-1.08594 1.1445329,1.1445329 0 0 0 -1.08398,-1.20117 1.1445329,1.1445329 0 0 0 -0.11523,0 z m 9.74804,0 a 1.1445329,1.1445329 0 0 0 -1.08398,1.20117 1.1445329,1.1445329 0 0 0 1.20117,1.08594 1.1445329,1.1445329 0 0 0 1.08398,-1.20117 1.1445329,1.1445329 0 0 0 -1.20117,-1.08594 z m -15.761716,3.41211 a 1.1445329,1.1445329 0 0 0 -1.085937,1.08594 1.1445329,1.1445329 0 0 0 1.085937,1.20117 1.1445329,1.1445329 0 0 0 1.199219,-1.08594 1.1445329,1.1445329 0 0 0 -1.083984,-1.20117 1.1445329,1.1445329 0 0 0 -0.115235,0 z m 21.775386,0 a 1.1445329,1.1445329 0 0 0 -1.08398,1.20117 1.1445329,1.1445329 0 0 0 1.20117,1.08594 1.1445329,1.1445329 0 0 0 1.08399,-1.20117 1.1445329,1.1445329 0 0 0 -1.20118,-1.08594 z m -27.537104,3.69141 a 1.1445329,1.1445329 0 0 0 -1.085938,1.08594 1.1445329,1.1445329 0 0 0 1.083984,1.20117 1.1445329,1.1445329 0 0 0 1.201172,-1.08594 1.1445329,1.1445329 0 0 0 -1.083984,-1.20117 1.1445329,1.1445329 0 0 0 -0.115234,0 z m 33.298824,0 a 1.1445329,1.1445329 0 0 0 -1.08398,1.20117 1.1445329,1.1445329 0 0 0 1.20117,1.08594 1.1445329,1.1445329 0 0 0 1.08399,-1.20117 1.1445329,1.1445329 0 0 0 -1.20118,-1.08594 z"
             transform="matrix(0.26458333,0,0,0.26458333,0,229.26665)"
             id="path4997"
             inkscape:connector-curvature="0" />
          <path
             style="opacity:1;fill:#ffffff;fill-opacity:1;stroke:#ffffff;stroke-width:0.22919443;stroke-miterlimit:4;stroke-dasharray:none;stroke-dashoffset:0;stroke-opacity:1"
             d="m 29.393041,210.92565 a 0.30282433,0.30282433 0 0 0 0.28732,-0.2868 0.30282433,0.30282433 0 0 0 -0.28681,-0.31782 0.30282433,0.30282433 0 0 0 -0.31781,0.28733 0.30282433,0.30282433 0 0 0 0.28681,0.31729 0.30282433,0.30282433 0 0 0 0.0305,0 z m -1.77199,0 a 0.30282433,0.30282433 0 0 0 0.28681,-0.31729 0.30282433,0.30282433 0 0 0 -0.31781,-0.28733 0.30282433,0.30282433 0 0 0 -0.28681,0.31782 0.30282433,0.30282433 0 0 0 0.31781,0.2868 z m 3.3631,-0.90227 a 0.30282433,0.30282433 0 0 0 0.28732,-0.28732 0.30282433,0.30282433 0 0 0 -0.2868,-0.31781 0.30282433,0.30282433 0 0 0 -0.31781,0.28732 0.30282433,0.30282433 0 0 0 0.28681,0.31781 0.30282433,0.30282433 0 0 0 0.0305,0 z m -4.95473,0 a 0.30282433,0.30282433 0 0 0 0.28732,-0.31781 0.30282433,0.30282433 0 0 0 -0.31781,-0.28732 0.30282433,0.30282433 0 0 0 -0.28681,0.31781 0.30282433,0.30282433 0 0 0 0.3173,0.28732 z m 6.47919,-0.97669 a 0.30282433,0.30282433 0 0 0 0.28732,-0.28732 0.30282433,0.30282433 0 0 0 -0.2868,-0.31781 0.30282433,0.30282433 0 0 0 -0.31781,0.28732 0.30282433,0.30282433 0 0 0 0.28732,0.31781 0.30282433,0.30282433 0 0 0 0.03,0 z m -8.00365,0 a 0.30282433,0.30282433 0 0 0 0.28732,-0.31781 0.30282433,0.30282433 0 0 0 -0.31781,-0.28732 0.30282433,0.30282433 0 0 0 -0.2868,0.31781 0.30282433,0.30282433 0 0 0 0.31729,0.28732 z m 4.98885,-0.11834 a 0.30282433,0.30282433 0 0 0 0.28732,-0.2868 0.30282433,0.30282433 0 0 0 -0.28681,-0.31781 0.30282433,0.30282433 0 0 0 -0.31781,0.2868 0.30282433,0.30282433 0 0 0 0.28732,0.31781 0.30282433,0.30282433 0 0 0 0.03,0 z m -1.97405,0 a 0.30282433,0.30282433 0 0 0 0.28733,-0.31781 0.30282433,0.30282433 0 0 0 -0.31781,-0.2868 0.30282433,0.30282433 0 0 0 -0.28681,0.31781 0.30282433,0.30282433 0 0 0 0.31729,0.2868 z m 3.56516,-0.90278 a 0.30282433,0.30282433 0 0 0 0.28732,-0.28732 0.30282433,0.30282433 0 0 0 -0.2868,-0.31781 0.30282433,0.30282433 0 0 0 -0.31781,0.28732 0.30282433,0.30282433 0 0 0 0.28732,0.31729 0.30282433,0.30282433 0 0 0 0.03,5.2e-4 z m -5.18624,0 a 0.30282433,0.30282433 0 0 0 0.03,-5.2e-4 0.30282433,0.30282433 0 0 0 0.28732,-0.31729 0.30282433,0.30282433 0 0 0 -0.31781,-0.28732 0.30282433,0.30282433 0 0 0 -0.28732,0.31781 0.30282433,0.30282433 0 0 0 0.28784,0.28732 z m 6.7107,-0.97669 a 0.30282433,0.30282433 0 0 0 0.28784,-0.28732 0.30282433,0.30282433 0 0 0 -0.28733,-0.31781 0.30282433,0.30282433 0 0 0 -0.31781,0.28732 0.30282433,0.30282433 0 0 0 0.28733,0.31781 0.30282433,0.30282433 0 0 0 0.03,0 z m -8.20519,0 a 0.30282433,0.30282433 0 0 0 0.28732,-0.31781 0.30282433,0.30282433 0 0 0 -0.3178,-0.28732 0.30282433,0.30282433 0 0 0 -0.28733,0.31781 0.30282433,0.30282433 0 0 0 0.31781,0.28732 z m 5.19038,-0.11782 a 0.30282433,0.30282433 0 0 0 0.28784,-0.2868 0.30282433,0.30282433 0 0 0 -0.28732,-0.31781 0.30282433,0.30282433 0 0 0 -0.31781,0.2868 0.30282433,0.30282433 0 0 0 0.28732,0.31781 0.30282433,0.30282433 0 0 0 0.03,0 z m -2.17557,0 a 0.30282433,0.30282433 0 0 0 0.28732,-0.31781 0.30282433,0.30282433 0 0 0 -0.31781,-0.2868 0.30282433,0.30282433 0 0 0 -0.28732,0.31781 0.30282433,0.30282433 0 0 0 0.31781,0.2868 z m 3.76669,-0.9033 a 0.30282433,0.30282433 0 0 0 0.28784,-0.28681 0.30282433,0.30282433 0 0 0 -0.28732,-0.31781 0.30282433,0.30282433 0 0 0 -0.31781,0.28732 0.30282433,0.30282433 0 0 0 0.28732,0.3173 0.30282433,0.30282433 0 0 0 0.03,0 z m -5.35781,0 a 0.30282433,0.30282433 0 0 0 0.28732,-0.3173 0.30282433,0.30282433 0 0 0 -0.31781,-0.28732 0.30282433,0.30282433 0 0 0 -0.28732,0.31781 0.30282433,0.30282433 0 0 0 0.31781,0.28681 z m 6.88278,-0.97617 a 0.30282433,0.30282433 0 0 0 0.28732,-0.28732 0.30282433,0.30282433 0 0 0 -0.28732,-0.31781 0.30282433,0.30282433 0 0 0 -0.31781,0.28732 0.30282433,0.30282433 0 0 0 0.28732,0.31781 0.30282433,0.30282433 0 0 0 0.0305,0 z m -8.40723,0 a 0.30282433,0.30282433 0 0 0 0.28732,-0.31781 0.30282433,0.30282433 0 0 0 -0.31781,-0.28732 0.30282433,0.30282433 0 0 0 -0.28733,0.31781 0.30282433,0.30282433 0 0 0 0.31782,0.28732 z m 5.39243,-0.11782 a 0.30282433,0.30282433 0 0 0 0.28732,-0.28681 0.30282433,0.30282433 0 0 0 -0.28732,-0.31781 0.30282433,0.30282433 0 0 0 -0.31781,0.28681 0.30282433,0.30282433 0 0 0 0.28732,0.31781 0.30282433,0.30282433 0 0 0 0.0305,0 z m -2.37763,0 a 0.30282433,0.30282433 0 0 0 0.28732,-0.31781 0.30282433,0.30282433 0 0 0 -0.31781,-0.28681 0.30282433,0.30282433 0 0 0 -0.28732,0.31781 0.30282433,0.30282433 0 0 0 0.31781,0.28681 z m 3.96875,-0.90331 a 0.30282433,0.30282433 0 0 0 0.28732,-0.2868 0.30282433,0.30282433 0 0 0 -0.28732,-0.31781 0.30282433,0.30282433 0 0 0 -0.31781,0.2868 0.30282433,0.30282433 0 0 0 0.28732,0.31781 0.30282433,0.30282433 0 0 0 0.0305,0 z m -5.55987,0 a 0.30282433,0.30282433 0 0 0 0.28681,-0.31781 0.30282433,0.30282433 0 0 0 -0.3173,-0.2868 0.30282433,0.30282433 0 0 0 -0.28732,0.31781 0.30282433,0.30282433 0 0 0 0.31781,0.2868 z m 7.08432,-0.97617 a 0.30282433,0.30282433 0 0 0 0.28732,-0.28732 0.30282433,0.30282433 0 0 0 -0.28732,-0.31781 0.30282433,0.30282433 0 0 0 -0.31729,0.28732 0.30282433,0.30282433 0 0 0 0.2868,0.31781 0.30282433,0.30282433 0 0 0 0.0305,0 z m -8.60877,0 a 0.30282433,0.30282433 0 0 0 0.2868,-0.31781 0.30282433,0.30282433 0 0 0 -0.31729,-0.28732 0.30282433,0.30282433 0 0 0 -0.28733,0.31781 0.30282433,0.30282433 0 0 0 0.31782,0.28732 z m 5.59397,-0.11833 a 0.30282433,0.30282433 0 0 0 0.28732,-0.28733 0.30282433,0.30282433 0 0 0 -0.28732,-0.31729 0.30282433,0.30282433 0 0 0 -0.31729,0.28681 0.30282433,0.30282433 0 0 0 0.2868,0.31781 0.30282433,0.30282433 0 0 0 0.0305,0 z m -2.57917,0 a 0.30282433,0.30282433 0 0 0 0.2868,-0.31781 0.30282433,0.30282433 0 0 0 -0.31781,-0.28681 0.30282433,0.30282433 0 0 0 -0.2868,0.31729 0.30282433,0.30282433 0 0 0 0.31781,0.28733 z m 4.17029,-0.90279 a 0.30282433,0.30282433 0 0 0 0.28732,-0.28681 0.30282433,0.30282433 0 0 0 -0.28732,-0.31781 0.30282433,0.30282433 0 0 0 -0.3173,0.28681 0.30282433,0.30282433 0 0 0 0.28681,0.31781 0.30282433,0.30282433 0 0 0 0.0305,0 z m -5.76141,0 a 0.30282433,0.30282433 0 0 0 0.28681,-0.31781 0.30282433,0.30282433 0 0 0 -0.31781,-0.28681 0.30282433,0.30282433 0 0 0 -0.28681,0.31781 0.30282433,0.30282433 0 0 0 0.31781,0.28681 z m 7.28586,-0.97617 a 0.30282433,0.30282433 0 0 0 0.28732,-0.28732 0.30282433,0.30282433 0 0 0 -0.2868,-0.31781 0.30282433,0.30282433 0 0 0 -0.31781,0.28732 0.30282433,0.30282433 0 0 0 0.2868,0.31781 0.30282433,0.30282433 0 0 0 0.0305,0 z m -8.81031,0 a 0.30282433,0.30282433 0 0 0 0.2868,-0.31781 0.30282433,0.30282433 0 0 0 -0.31781,-0.28732 0.30282433,0.30282433 0 0 0 -0.2868,0.31781 0.30282433,0.30282433 0 0 0 0.31781,0.28732 z"
             id="path4999"
             inkscape:connector-curvature="0" />
        </g>
      </g>
      <g
         style="stroke-width:0.65057927"
         transform="matrix(1.5376341,0,0,1.5365494,121.20515,-575.7324)"
         id="g5078">
        <path
           inkscape:connector-curvature="0"
           style="opacity:1;fill:#dceeee;fill-opacity:1;stroke:#2d2d2d;stroke-width:2.98952675;stroke-miterlimit:4;stroke-dasharray:none;stroke-dashoffset:0;stroke-opacity:1"
           d="m -171.01562,68.837891 c -3.27821,0 -5.91797,2.639762 -5.91797,5.917968 V 132.9668 c -23.4076,19.51212 -48.07189,52.85134 -40.29493,61.94922 11.20311,13.10595 122.024269,13.65412 133.519536,0.66015 8.129089,-9.18892 -16.841346,-43.85924 -40.191406,-63.42773 V 74.755859 c 0,-3.278206 -2.63976,-5.917968 -5.91797,-5.917968 z"
           transform="matrix(0.26458333,0,0,0.26458333,0,229.26665)"
           id="path5038" />
        <rect
           rx="1.0182068"
           ry="1.0189255"
           y="244.76736"
           x="-46.813305"
           height="2.6192403"
           width="14.03165"
           id="rect5041"
           style="opacity:1;fill:#2d2d2d;fill-opacity:1;stroke:#2d2d2d;stroke-width:0.65057927;stroke-miterlimit:4;stroke-dasharray:none;stroke-dashoffset:0;stroke-opacity:1" />
        <path
           inkscape:connector-curvature="0"
           style="opacity:1;fill:#19aeff;fill-opacity:1;stroke:none;stroke-width:2.45888233;stroke-miterlimit:4;stroke-dasharray:none;stroke-dashoffset:0;stroke-opacity:1"
           d="m -123.36133,136.01172 -0.25781,6 c -0.35538,8.28387 -0.93262,10.45321 -6.81055,11.68359 a 6.6923871,6.6923871 0 0 1 0.10938,1.1875 6.6923871,6.6923871 0 0 1 -6.69336,6.69336 6.6923871,6.6923871 0 0 1 -6.66211,-6.10937 c -1.9343,0.24262 -3.99666,0.51129 -6.33399,0.85156 -2.53196,0.36861 -4.91113,0.7932 -7.14062,1.25 a 3.9423873,3.9423873 0 0 1 0.33008,1.56445 3.9423873,3.9423873 0 0 1 -3.94336,3.94336 3.9423873,3.9423873 0 0 1 -3.9336,-3.71484 c -3.32619,0.89236 -6.21371,1.79434 -8.625,2.57031 a 6.6923872,6.6923872 0 0 1 -6.6914,6.64453 6.6923872,6.6923872 0 0 1 -6.69141,-6.69336 6.6923872,6.6923872 0 0 1 6.13477,-6.66406 c 1.73519,-4.20052 3.70898,-8.85562 3.70898,-11.31641 0,-3.51406 -0.38434,-6.39062 -0.85351,-6.39062 -1.57469,0 -18.83309,18.56533 -25.16993,27.07617 -7.49506,10.06642 -13.2593,21.59285 -12.80078,25.5957 0.25513,2.22718 1.28033,3.2933 4.82422,5.01563 5.40382,2.62626 20.12041,5.13734 36.5,6.22656 34.73869,2.31008 72.56699,-0.34212 85.380861,-5.98633 4.34095,-1.91209 4.376529,-1.97011 3.824219,-6.08789 -1.33116,-9.92451 -13.751442,-28.68442 -29.50781,-44.57031 z"
           transform="matrix(0.26458333,0,0,0.26458333,0,229.26665)"
           id="path5046" />
        <circle
           style="opacity:1;fill:#ffffff;fill-opacity:1;stroke:#ffffff;stroke-width:0.65057927;stroke-miterlimit:4;stroke-dasharray:none;stroke-dashoffset:0;stroke-opacity:1"
           id="path5054"
           cx="-35.325375"
           cy="275.53796"
           r="1.7706941" />
        <circle
           r="0.84465241"
           cy="275.14111"
           cx="-44.585793"
           id="circle5065"
           style="opacity:1;fill:#ffffff;fill-opacity:1;stroke:#ffffff;stroke-width:0.65057927;stroke-miterlimit:4;stroke-dasharray:none;stroke-dashoffset:0;stroke-opacity:1" />
        <circle
           style="opacity:1;fill:#ffffff;fill-opacity:1;stroke:#ffffff;stroke-width:0.65057927;stroke-miterlimit:4;stroke-dasharray:none;stroke-dashoffset:0;stroke-opacity:1"
           id="circle5067"
           cx="-52.391003"
           cy="277.65466"
           r="0.84465241" />
        <rect
           style="opacity:0.76000001;fill:#ffffff;fill-opacity:1;stroke:#ffffff;stroke-width:0.65057927;stroke-miterlimit:4;stroke-dasharray:none;stroke-dashoffset:0;stroke-opacity:1"
           id="rect5069"
           width="1.8520833"
           height="15.345833"
           x="-38.761459"
           y="249.37498"
           rx="1.0182068"
           ry="1.0189255" />
      </g>
      <g
         transform="translate(212.80576,-174.2732)"
         id="g5190">
        <g
           id="g5146"
           transform="rotate(-178.96634,-222.29263,85.048784)">
          <path
             sodipodi:nodetypes="ccccccc"
             inkscape:connector-curvature="0"
             style="opacity:1;fill:#9eabb0;fill-opacity:1;stroke:#2d2d2d;stroke-width:2;stroke-miterlimit:4;stroke-dasharray:none;stroke-dashoffset:0;stroke-opacity:1"
             d="m -234.12051,101.53893 c -1.92103,-1.622651 -3.35905,-3.058531 -3.22421,-3.219464 l 25.81482,-30.811769 c 0.13386,-0.161713 1.78994,1.015787 3.711,2.638454 1.92104,1.622658 3.35905,3.058512 3.2242,3.219455 -12.33283,8.406641 -18.18292,20.054652 -25.81481,30.811764 -0.13386,0.16173 -1.78995,-1.01578 -3.711,-2.63844 z"
             id="path5142" />
          <path
             sodipodi:nodetypes="scccccs"
             inkscape:connector-curvature="0"
             id="path5121"
             d="m -236.76636,99.951419 c -1.92103,-1.622641 -3.35905,-3.058521 -3.22421,-3.219454 l 25.81482,-30.811769 c 0.13386,-0.161713 1.78994,1.015787 3.711,2.638454 1.92104,1.622658 3.35905,3.058512 3.2242,3.219455 -14.20826,4.678852 -18.65196,19.080108 -25.81481,30.811755 -0.13386,0.16173 -1.78995,-1.01578 -3.711,-2.638441 z"
             style="opacity:1;fill:#9eabb0;fill-opacity:1;stroke:#2d2d2d;stroke-width:2;stroke-miterlimit:4;stroke-dasharray:none;stroke-dashoffset:0;stroke-opacity:1" />
        </g>
        <path
           style="opacity:1;fill:#ffffff;fill-opacity:1;stroke:#2d2d2d;stroke-width:2;stroke-miterlimit:4;stroke-dasharray:none;stroke-dashoffset:0;stroke-opacity:1"
           d="m -241.75188,99.375415 c 2.27324,-0.939495 6.50208,3.458465 7.65003,5.634855 1.9614,3.71865 -18.94675,20.39021 -23.0012,17.71208 -1.9502,-1.499 13.07739,-22.40668 15.35063,-23.346175 z"
           id="path5140"
           inkscape:connector-curvature="0" />
        <path
           style="opacity:1;fill:#b50000;fill-opacity:1;stroke:none;stroke-width:2.62002945;stroke-miterlimit:4;stroke-dasharray:none;stroke-dashoffset:0;stroke-opacity:1"
           d="m -255.94927,121.60566 c -0.0304,-0.14113 0.55812,-1.28528 1.48701,-2.89117 1.74383,-3.01474 6.83377,-9.80882 7.4474,-9.9408 0.43406,-0.0934 2.30027,1.45183 3.17809,2.6314 0.31059,0.41733 0.31423,0.4465 0.11221,0.89439 -0.9138,2.02567 -6.24795,6.60825 -9.82473,8.44046 -1.04391,0.53474 -2.3684,1.01252 -2.39997,0.86572 z"
           id="path5128"
           inkscape:connector-curvature="0" />
      </g>
      <g
         transform="matrix(0.97408344,0,0,0.97408344,131.02173,-392.38495)"
         id="g5183">
        <path
           style="opacity:1;fill:#b50000;fill-opacity:1;stroke:#2d2d2d;stroke-width:7.55905533;stroke-miterlimit:4;stroke-dasharray:none;stroke-dashoffset:0;stroke-opacity:1"
           d="m -574.47852,112.35352 c 5e-4,-7.5e-4 10e-4,-0.001 0.002,-0.002 310.76459,-325.03131 -326.09138,-294.58102 -0.002,0.002 z"
           transform="matrix(0.26458333,0,0,0.26458333,0,229.26665)"
           id="path5168"
           inkscape:connector-curvature="0"
           sodipodi:nodetypes="ccc" />
        <path
           style="opacity:1;fill:#ffffff;fill-opacity:1;stroke:none;stroke-width:10.33904552;stroke-miterlimit:4;stroke-dasharray:none;stroke-dashoffset:0;stroke-opacity:1"
           d="m -144.73627,202.69098 c -0.44394,-0.006 -0.88873,0.004 -1.33326,0.0274 12.36291,0.64346 23.22238,12.6916 -0.0878,37.70726 0.37105,0.34534 0.74758,0.69249 1.1348,1.04231 0,0 5.3e-4,0 5.3e-4,0 25.10693,-26.25956 13.1305,-38.60805 0.28577,-38.77696 z"
           id="path5175"
           inkscape:connector-curvature="0" />
        <path
           sodipodi:nodetypes="ccc"
           inkscape:connector-curvature="0"
           id="path5173"
           d="m -146.20652,240.99445 c 9e-5,-1.2e-4 1.7e-4,-1.6e-4 3.4e-4,-3.3e-4 51.833689,-54.21329 -54.39011,-49.13436 -3.4e-4,3.3e-4 z"
           style="opacity:1;fill:#dc0000;fill-opacity:1;stroke:none;stroke-width:10.33904648;stroke-miterlimit:4;stroke-dasharray:none;stroke-dashoffset:0;stroke-opacity:1" />
      </g>
      <g
         transform="matrix(1.3679232,0,0,1.3679232,180.94742,-531.47249)"
         id="g6302">
        <g
           id="g5390"
           transform="matrix(0.33154883,0,0,0.32578633,160.63068,231.04534)">
          <rect
             transform="rotate(90)"
             ry="56.628403"
             rx="1.5980705"
             y="364.15912"
             x="39.243961"
             height="11.538161"
             width="31.876801"
             id="rect5293"
             style="opacity:1;fill:#2d2d2d;fill-opacity:1;stroke:#2d2d2d;stroke-width:0.43742096;stroke-miterlimit:4;stroke-dasharray:none;stroke-dashoffset:0;stroke-opacity:1" />
          <rect
             ry="57.533432"
             rx="1.5729319"
             y="47.354782"
             x="-404.97684"
             height="113.22904"
             width="68.202644"
             id="rect5264"
             style="opacity:1;fill:#ffffff;fill-opacity:1;stroke:#2d2d2d;stroke-width:2.00434923;stroke-miterlimit:4;stroke-dasharray:none;stroke-dashoffset:0;stroke-opacity:1" />
          <rect
             style="opacity:1;fill:#dceeee;fill-opacity:1;stroke:#000000;stroke-width:0.56437242;stroke-miterlimit:4;stroke-dasharray:none;stroke-dashoffset:0;stroke-opacity:1"
             id="rect5268"
             width="18.961037"
             height="32.291019"
             x="-380.35602"
             y="127.59183"
             rx="1.5729318"
             ry="57.533432" />
          <path
             inkscape:connector-curvature="0"
             id="rect4620-7"
             d="m -375.97622,56.864838 c -0.23561,0 -0.42498,0.189518 -0.42498,0.424975 v 10.626358 h -10.62726 c -0.23535,0 -0.42497,0.189519 -0.42497,0.425001 v 10.202254 c 0,0.23561 0.18952,0.42498 0.42497,0.42498 h 10.62726 v 10.62636 c 0,0.23561 0.18952,0.425 0.42498,0.425 h 10.20138 c 0.23561,0 0.42497,-0.18952 0.42497,-0.425 v -10.62636 h 10.62639 c 0.23561,0 0.42585,-0.18952 0.42585,-0.42498 V 68.341172 c 0,-0.235611 -0.19029,-0.425001 -0.42585,-0.425001 h -10.62639 V 57.289813 c 0,-0.235611 -0.18951,-0.424975 -0.42497,-0.424975 z"
             style="opacity:1;fill:#dc0000;fill-opacity:1;stroke:#2d2d2d;stroke-width:1.69217241;stroke-miterlimit:4;stroke-dasharray:none;stroke-dashoffset:0;stroke-opacity:1" />
          <path
             sodipodi:nodetypes="cssccssssc"
             inkscape:connector-curvature="0"
             id="path4625-0"
             d="m -342.16762,48.343356 c 1.3391,1.500578 2.31386,6.258108 2.31386,11.937121 v 85.604903 c 0,3.91782 -0.46414,7.39763 -1.19122,9.6744 0.0724,1.07359 0.12697,2.16395 0.16351,3.26442 h 0.91525 c 1.78046,0 3.21396,-5.54795 3.21396,-12.43874 V 60.780548 c 0,-6.890792 -1.4335,-12.437192 -3.21396,-12.437192 z"
             style="opacity:1;fill:#cccccc;fill-opacity:1;stroke:none;stroke-width:3.03644204;stroke-miterlimit:4;stroke-dasharray:none;stroke-dashoffset:0;stroke-opacity:1" />
          <path
             style="opacity:1;fill:#cccccc;fill-opacity:1;stroke:none;stroke-width:3.03644204;stroke-miterlimit:4;stroke-dasharray:none;stroke-dashoffset:0;stroke-opacity:1"
             d="m -399.19432,48.343356 c -1.3391,1.500578 -2.31386,6.258108 -2.31386,11.937121 v 85.604903 c 0,3.91782 0.46414,7.39763 1.19122,9.6744 -0.0724,1.07359 -0.12697,2.16395 -0.16351,3.26442 h -0.91525 c -1.78046,0 -3.21396,-5.54795 -3.21396,-12.43874 V 60.780548 c 0,-6.890792 1.4335,-12.437192 3.21396,-12.437192 z"
             id="path5289"
             inkscape:connector-curvature="0"
             sodipodi:nodetypes="cssccssssc" />
          <rect
             ry="14.504226"
             rx="1.5729318"
             y="123.66756"
             x="-389.15063"
             height="4.3413968"
             width="37.97123"
             id="rect5266"
             style="opacity:1;fill:#000000;fill-opacity:1;stroke:#000000;stroke-width:0.5005607;stroke-miterlimit:4;stroke-dasharray:none;stroke-dashoffset:0;stroke-opacity:1" />
          <ellipse
             ry="9.7972221"
             rx="2.5605674"
             cy="142.73692"
             cx="-366.73523"
             id="path5350"
             style="opacity:1;fill:#ffffff;fill-opacity:1;stroke:#ffffff;stroke-width:1.43898499;stroke-miterlimit:4;stroke-dasharray:none;stroke-dashoffset:0;stroke-opacity:1" />
        </g>
        <g
           id="g5372"
           transform="matrix(0.33149082,0,0,0.33093509,160.60916,230.31703)">
          <rect
             style="opacity:1;fill:#ffffff;fill-opacity:1;stroke:#2d2d2d;stroke-width:1.623914;stroke-miterlimit:4;stroke-dasharray:none;stroke-dashoffset:0;stroke-opacity:1"
             id="rect5297"
             width="55.25745"
             height="91.737617"
             x="-465.73233"
             y="69.426842"
             rx="1.5732071"
             ry="56.638313" />
          <path
             style="opacity:1;fill:#cccccc;fill-opacity:1;stroke:none;stroke-width:2.46011043;stroke-miterlimit:4;stroke-dasharray:none;stroke-dashoffset:0;stroke-opacity:1"
             d="m -414.84461,70.227777 c 1.08493,1.215761 1.87468,5.070288 1.87468,9.671397 v 69.356676 c 0,3.1742 -0.37605,5.99352 -0.96512,7.83815 0.0587,0.86982 0.10287,1.75322 0.13247,2.64482 h 0.74153 c 1.44252,0 2.60394,-4.49492 2.60394,-10.07781 V 80.304329 c 0,-5.582886 -1.16142,-10.076552 -2.60394,-10.076552 z"
             id="path5303"
             inkscape:connector-curvature="0"
             sodipodi:nodetypes="cssccssssc" />
          <path
             sodipodi:nodetypes="cssccssssc"
             inkscape:connector-curvature="0"
             id="path5305"
             d="m -461.04736,70.227777 c -1.08494,1.215761 -1.87468,5.070288 -1.87468,9.671397 v 69.356676 c 0,3.1742 0.37604,5.99352 0.96512,7.83815 -0.0587,0.86982 -0.10287,1.75322 -0.13248,2.64482 h -0.74153 c -1.44252,0 -2.60393,-4.49492 -2.60393,-10.07781 V 80.304329 c 0,-5.582886 1.16141,-10.076552 2.60393,-10.076552 z"
             style="opacity:1;fill:#cccccc;fill-opacity:1;stroke:none;stroke-width:2.46011043;stroke-miterlimit:4;stroke-dasharray:none;stroke-dashoffset:0;stroke-opacity:1" />
          <path
             inkscape:connector-curvature="0"
             d="m -423.20065,87.565614 h 5.42509 c 0.70273,0 1.26847,1.78773 1.26847,4.008364 0,2.220633 -0.56574,4.008365 -1.26847,4.008365 h -5.42509 c -0.70274,0 -1.26847,-1.787732 -1.26847,-4.008365 0,-2.220634 0.56573,-4.008364 1.26847,-4.008364 z m -12.15293,0 h 5.4251 c 0.70273,0 1.26846,1.78773 1.26846,4.008364 0,2.220633 -0.56573,4.008365 -1.26846,4.008365 h -5.4251 c -0.70273,0 -1.26847,-1.787732 -1.26847,-4.008365 0,-2.220634 0.56574,-4.008364 1.26847,-4.008364 z m -12.15293,0 h 5.4251 c 0.70273,0 1.26847,1.78773 1.26847,4.008364 0,2.220633 -0.56574,4.008365 -1.26847,4.008365 h -5.4251 c -0.70273,0 -1.26846,-1.787732 -1.26846,-4.008365 0,-2.220634 0.56573,-4.008364 1.26846,-4.008364 z m -12.15292,0 h 5.42509 c 0.70274,0 1.26847,1.78773 1.26847,4.008364 0,2.220633 -0.56573,4.008365 -1.26847,4.008365 h -5.42509 c -0.70274,0 -1.26847,-1.787732 -1.26847,-4.008365 0,-2.220634 0.56573,-4.008364 1.26847,-4.008364 z"
             style="opacity:1;fill:#dceeee;fill-opacity:1;stroke:#2d2d2d;stroke-width:1.62039018;stroke-miterlimit:4;stroke-dasharray:none;stroke-dashoffset:0;stroke-opacity:1"
             id="rect5313" />
          <path
             inkscape:connector-curvature="0"
             id="path5320"
             style="opacity:1;fill:#dceeee;fill-opacity:1;stroke:#2d2d2d;stroke-width:1.62039018;stroke-miterlimit:4;stroke-dasharray:none;stroke-dashoffset:0;stroke-opacity:1"
             d="m -423.20065,107.28718 h 5.42509 c 0.70273,0 1.26847,1.78773 1.26847,4.00836 0,2.22064 -0.56574,4.00839 -1.26847,4.00839 h -5.42509 c -0.70274,0 -1.26847,-1.78775 -1.26847,-4.00839 0,-2.22063 0.56573,-4.00836 1.26847,-4.00836 z m -12.15293,0 h 5.4251 c 0.70273,0 1.26846,1.78773 1.26846,4.00836 0,2.22064 -0.56573,4.00839 -1.26846,4.00839 h -5.4251 c -0.70273,0 -1.26847,-1.78775 -1.26847,-4.00839 0,-2.22063 0.56574,-4.00836 1.26847,-4.00836 z m -12.15293,0 h 5.4251 c 0.70273,0 1.26847,1.78773 1.26847,4.00836 0,2.22064 -0.56574,4.00839 -1.26847,4.00839 h -5.4251 c -0.70273,0 -1.26846,-1.78775 -1.26846,-4.00839 0,-2.22063 0.56573,-4.00836 1.26846,-4.00836 z m -12.15292,0 h 5.42509 c 0.70274,0 1.26847,1.78773 1.26847,4.00836 0,2.22064 -0.56573,4.00839 -1.26847,4.00839 h -5.42509 c -0.70274,0 -1.26847,-1.78775 -1.26847,-4.00839 0,-2.22063 0.56573,-4.00836 1.26847,-4.00836 z" />
          <path
             d="m -423.20065,127.00873 h 5.42509 c 0.70273,0 1.26847,1.78773 1.26847,4.00838 0,2.22065 -0.56574,4.00839 -1.26847,4.00839 h -5.42509 c -0.70274,0 -1.26847,-1.78774 -1.26847,-4.00839 0,-2.22065 0.56573,-4.00838 1.26847,-4.00838 z m -12.15293,0 h 5.4251 c 0.70273,0 1.26846,1.78773 1.26846,4.00838 0,2.22065 -0.56573,4.00839 -1.26846,4.00839 h -5.4251 c -0.70273,0 -1.26847,-1.78774 -1.26847,-4.00839 0,-2.22065 0.56574,-4.00838 1.26847,-4.00838 z m -12.15293,0 h 5.4251 c 0.70273,0 1.26847,1.78773 1.26847,4.00838 0,2.22065 -0.56574,4.00839 -1.26847,4.00839 h -5.4251 c -0.70273,0 -1.26846,-1.78774 -1.26846,-4.00839 0,-2.22065 0.56573,-4.00838 1.26846,-4.00838 z m -12.15292,0 h 5.42509 c 0.70274,0 1.26847,1.78773 1.26847,4.00838 0,2.22065 -0.56573,4.00839 -1.26847,4.00839 h -5.42509 c -0.70274,0 -1.26847,-1.78774 -1.26847,-4.00839 0,-2.22065 0.56573,-4.00838 1.26847,-4.00838 z"
             style="opacity:1;fill:#dceeee;fill-opacity:1;stroke:#2d2d2d;stroke-width:1.62039018;stroke-miterlimit:4;stroke-dasharray:none;stroke-dashoffset:0;stroke-opacity:1"
             id="path5322"
             inkscape:connector-curvature="0" />
        </g>
        <g
           id="g6281"
           transform="matrix(0.72842531,0,0,1.0212658,1.2035066,-6.0385516)">
          <rect
             style="opacity:1;fill:#2d2d2d;fill-opacity:1;stroke:#2d2d2d;stroke-width:0.40525565;stroke-miterlimit:4;stroke-dasharray:none;stroke-dashoffset:0;stroke-opacity:1"
             id="rect5346"
             width="64.79007"
             height="1.6677099"
             x="4.5657339"
             y="283.12244"
             rx="0.52150375"
             ry="4.7252789" />
          <rect
             ry="4.7252789"
             rx="0.52150375"
             y="283.03949"
             x="4.4826488"
             height="0.57960498"
             width="64.956245"
             id="rect5348"
             style="opacity:1;fill:#ffffff;fill-opacity:1;stroke:#000000;stroke-width:0.23921649;stroke-miterlimit:4;stroke-dasharray:none;stroke-dashoffset:0;stroke-opacity:1" />
        </g>
      </g>
      <g
         transform="translate(1.5258218,-1.353507)"
         id="g6252">
        <path
           inkscape:connector-curvature="0"
           id="path6187"
           d="m 210.42718,-12.743231 c -0.34503,0 -0.62237,0.273338 -0.62237,0.612928 V 3.1955663 H 194.2421 c -0.34503,0 -0.62235,0.273337 -0.62235,0.612955 V 18.52274 c 0,0.339811 0.27755,0.612918 0.62235,0.612918 h 15.56271 v 15.325917 c 0,0.339809 0.27753,0.61292 0.62237,0.61292 h 14.93909 c 0.34503,0 0.62233,-0.273333 0.62233,-0.61292 V 19.135658 h 15.56146 c 0.34504,0 0.62363,-0.273328 0.62363,-0.612918 V 3.8085213 c 0,-0.339802 -0.27866,-0.612955 -0.62363,-0.612955 H 225.9886 V -12.130303 c 0,-0.339811 -0.27752,-0.612928 -0.62233,-0.612928 z"
           style="opacity:1;fill:#dc0000;fill-opacity:1;stroke:#2d2d2d;stroke-width:2.45922041;stroke-miterlimit:4;stroke-dasharray:none;stroke-dashoffset:0;stroke-opacity:1" />
        <path
           style="opacity:0.42900002;fill:#ffffff;fill-opacity:1;stroke:none;stroke-width:2.43015742;stroke-miterlimit:4;stroke-dasharray:none;stroke-dashoffset:0;stroke-opacity:1"
           d="m 214.59992,-12.250708 a 18.256372,28.08655 0 0 0 -0.50276,6.4174585 18.256372,28.08655 0 0 0 11.34908,25.9830435 v -1.682541 h 15.77012 c 0.15555,0 0.29592,-0.05425 0.40588,-0.140918 a 18.256372,28.08655 0 0 0 0.0597,-0.05279 c 0.10241,-0.104877 0.16653,-0.243033 0.16653,-0.396859 V 3.6983317 c 0,-0.3274241 -0.28251,-0.5905587 -0.6321,-0.5905587 h -15.77014 v -14.767925 c 0,-0.327432 -0.28162,-0.590556 -0.63108,-0.590556 z"
           id="path6237"
           inkscape:connector-curvature="0" />
      </g>
    </g>
  </g>
</svg>
